<?xml version="1.0" encoding="UTF-8"?>
<svg version="1.1" xmlns="http://www.w3.org/2000/svg" width="900" height="720">
<path d="M0 0 C-0.06058594 1.05832031 -0.12117187 2.11664063 -0.18359375 3.20703125 C-0.97700867 17.46455377 -1.50228345 31.72945841 -2 46 C-0.95199219 46.13277344 0.09601563 46.26554687 1.17578125 46.40234375 C2.55470778 46.58057235 3.93361293 46.75896641 5.3125 46.9375 C6.00279297 47.02451172 6.69308594 47.11152344 7.40429688 47.20117188 C10.40142288 47.59210135 13.12450119 48.0415004 16 49 C16.12689209 47.69554932 16.25378418 46.39109863 16.38452148 45.04711914 C16.90691954 40.36200637 17.79541026 35.8372957 18.84765625 31.24609375 C19.02380966 30.45977066 19.19996307 29.67344757 19.38145447 28.86329651 C19.93727959 26.38698669 20.49976126 23.9122468 21.0625 21.4375 C21.44380342 19.74424056 21.82466674 18.05088195 22.20507812 16.35742188 C23.13164233 12.23711897 24.06417357 8.11820865 25 4 C25.77601563 4.23187012 26.55203125 4.46374023 27.3515625 4.70263672 C30.90049928 5.76191812 34.45024012 6.81848032 38 7.875 C39.22074219 8.23980469 40.44148437 8.60460938 41.69921875 8.98046875 C47.77323267 10.78625667 53.83426744 12.53563852 60 14 C58.22205259 19.72679439 56.12042999 25.26939761 53.828125 30.80859375 C53.54005981 31.50586578 53.25199463 32.20313782 52.9552002 32.92153931 C51.74674993 35.84046703 50.53475704 38.75784124 49.31396484 41.67163086 C48.41599241 43.81867869 47.52763412 45.96949816 46.640625 48.12109375 C46.22046112 49.11320107 46.22046112 49.11320107 45.79180908 50.12535095 C45.13516621 51.72716119 44.55962178 53.36176944 44 55 C44.33 55.66 44.66 56.32 45 57 C45.66 57 46.32 57 47 57 C47 58.32 47 59.64 47 61 C48.98 61 50.96 61 53 61 C53.75 62.75 53.75 62.75 54 65 C53.4136377 65.58434814 52.82727539 66.16869629 52.22314453 66.77075195 C49.69717158 69.30365982 48.3307802 71.74860458 46.6796875 74.91796875 C46.06625488 76.08263672 45.45282227 77.24730469 44.82080078 78.44726562 C44.50274475 79.05868408 44.18468872 79.67010254 43.85699463 80.30004883 C42.20646399 83.47246535 40.53389965 86.63316664 38.859375 89.79296875 C38.52950592 90.41613983 38.19963684 91.03931091 37.85977173 91.68136597 C34.72302929 97.5776236 31.37602464 103.33335064 27.88232422 109.02416992 C25.18599847 113.23823516 25.18599847 113.23823516 24 118 C24.66 118.66 25.32 119.32 26 120 C24.68 120 23.36 120 22 120 C21.82621826 120.61383545 21.65243652 121.2276709 21.47338867 121.86010742 C19.7381022 127.83467082 17.6823837 133.56387118 15.3125 139.3125 C14.61101033 141.0503905 13.91052415 142.78868632 13.2109375 144.52734375 C12.08829194 147.30883131 10.96361363 150.08941304 9.83300781 152.86767578 C8.68673863 155.69791686 7.56038341 158.53541262 6.4375 161.375 C6.07889893 162.24809814 5.72029785 163.12119629 5.35083008 164.02075195 C5.02751709 164.84663818 4.7042041 165.67252441 4.37109375 166.5234375 C4.08161865 167.24450684 3.79214355 167.96557617 3.49389648 168.70849609 C2.85290063 171.68248874 3.36518428 174.05163953 4 177 C9.08228817 176.87950971 14.16446495 176.75518876 19.24658203 176.62768555 C20.96660983 176.58502835 22.68666159 176.54332381 24.40673828 176.50268555 C36.28774425 176.22112865 48.13798264 175.73072896 60 175 C59.83701416 173.81116211 59.67402832 172.62232422 59.50610352 171.39746094 C59.36073654 170.33440735 59.36073654 170.33440735 59.21243286 169.24987793 C59.00978129 167.77577838 58.80283335 166.30226793 58.59350586 164.82910156 C57.7067504 158.05254875 57.7067504 158.05254875 59 155 C60.88195801 153.91828918 60.88195801 153.91828918 63.37695312 153.09301758 C64.30882446 152.77621536 65.2406958 152.45941315 66.20080566 152.13301086 C67.21735229 151.80681259 68.23389893 151.48061432 69.28125 151.14453125 C70.32390015 150.79742599 71.36655029 150.45032074 72.4407959 150.09269714 C74.6542375 149.35969963 76.87036451 148.63477026 79.08886719 147.91723633 C82.46434237 146.82404815 85.83008718 145.70437156 89.1953125 144.58007812 C91.34843121 143.87079368 93.50206221 143.16306211 95.65625 142.45703125 C96.65660278 142.12476028 97.65695557 141.79248932 98.68762207 141.45014954 C104.50660653 139.5815242 109.90156967 138.45675389 116 138 C115.67 135.69 115.34 133.38 115 131 C115.99 132.32 116.98 133.64 118 135 C127.69033513 132.53293016 137.10770447 129.34112052 146.56054688 126.10766602 C148.5495092 125.42864111 150.54025921 124.75508066 152.53125 124.08203125 C153.70236328 123.68218018 154.87347656 123.2823291 156.08007812 122.87036133 C159 122 159 122 162 122 C162.67684298 125.03949302 163.33961872 128.08189165 164 131.125 C164.19078125 131.9809375 164.3815625 132.836875 164.578125 133.71875 C164.84882812 134.97558594 164.84882812 134.97558594 165.125 136.2578125 C165.29257812 137.0223877 165.46015625 137.78696289 165.6328125 138.57470703 C166.06166456 141.40729771 166.02305326 144.13866775 166 147 C166.99064453 146.88804291 167.98128906 146.77608582 169.00195312 146.66073608 C253.12163348 137.15577032 253.12163348 137.15577032 284.42993164 133.75665283 C286.74979534 133.50423222 289.06946157 133.24998939 291.38891602 132.99383545 C294.55951043 132.64423833 297.73077225 132.30154018 300.90234375 131.9609375 C301.79316147 131.86143799 302.68397919 131.76193848 303.60179138 131.65942383 C315.61849837 130.39201727 315.61849837 130.39201727 321 131 C323 133 323 133 323.18457031 136.85522461 C323.05121612 142.69310198 322.55170085 148.5009303 322.046875 154.31640625 C321.94669571 155.5060498 321.84651642 156.69569336 321.74330139 157.92138672 C321.41572852 161.80206586 321.08292552 165.68227673 320.75 169.5625 C320.5209636 172.25701545 320.2930274 174.95162354 320.06518555 177.64624023 C319.71757985 181.75475702 319.36962541 185.86324262 319.01982117 189.97157288 C318.28230737 198.63620608 317.55853015 207.30188607 316.84765625 215.96875 C316.67025834 218.12557056 316.49284976 220.28239025 316.31542969 222.43920898 C316.06774881 225.45134814 315.82055802 228.46352174 315.57531738 231.4758606 C314.7785766 241.25090836 313.93816817 251.01963642 312.94921875 260.77734375 C312.8692012 261.59288223 312.78918365 262.40842072 312.70674133 263.24867249 C312.11787661 268.88212339 312.11787661 268.88212339 311 270 C303.76093221 269.60992492 296.9870259 267.38903537 290.07739258 265.33874512 C253.49570868 254.52158052 216.43855574 245.54736841 179.30366516 236.86459351 C174.83025288 235.81441259 170.36091175 234.74749093 165.89169312 233.67962646 C163.29609276 233.06958985 160.69606543 232.49055985 158.09106445 231.92236328 C156.73499439 231.60793363 155.37909834 231.29275187 154.0234375 230.9765625 C152.92563965 230.73502441 151.8278418 230.49348633 150.69677734 230.24462891 C146.10941711 228.12744961 144.5920005 224.19956089 142.78515625 219.6796875 C142 217 142 217 142 215 C141.2265625 214.87882813 140.453125 214.75765625 139.65625 214.6328125 C133.68117941 213.67147688 127.84407421 212.57340459 122 211 C121.87625 212.134375 121.7525 213.26875 121.625 214.4375 C121.23447925 217.60353262 120.66998263 220.67515749 119.9609375 223.78515625 C119.78095215 224.57929932 119.6009668 225.37344238 119.41552734 226.19165039 C119.27840332 226.78840576 119.1412793 227.38516113 119 228 C120.20124512 228.47945068 121.40249023 228.95890137 122.64013672 229.45288086 C127.08709922 231.22805209 131.53360866 233.00435567 135.97998047 234.78100586 C137.90628878 235.55052201 139.83272065 236.31972895 141.75927734 237.08862305 C144.52473796 238.19238769 147.28975572 239.29725515 150.0546875 240.40234375 C151.3516304 240.91957253 151.3516304 240.91957253 152.67477417 241.44725037 C153.47545319 241.76750687 154.2761322 242.08776337 155.10107422 242.41772461 C155.8072287 242.69974228 156.51338318 242.98175995 157.24093628 243.27232361 C158.5152342 243.79946569 159.76656124 244.38328062 161 245 C159.25492573 249.83028844 156.8035588 254.21325014 154.3125 258.6875 C153.64855225 259.88318604 153.64855225 259.88318604 152.97119141 261.10302734 C149.65027707 267.00860991 146.09956075 272.59726762 142 278 C138.64743229 277.35996435 136.34493952 276.11583696 133.5 274.25 C132.54996094 273.63382812 131.59992188 273.01765625 130.62109375 272.3828125 C128.6110923 271.06310866 126.60433276 269.73858131 124.59814453 268.41308594 C122.82592089 267.24302942 121.05228466 266.07511007 119.27734375 264.90917969 C117.4834705 263.73025651 115.69302649 262.54609687 113.90625 261.35644531 C113.07222656 260.80827148 112.23820312 260.26009766 111.37890625 259.6953125 C110.6319751 259.20047363 109.88504395 258.70563477 109.11547852 258.19580078 C107.0254057 257.01436089 105.37814946 256.31312249 103 256 C101.22809091 257.35444301 101.22809091 257.35444301 100 259 C100.33 257.02 100.66 255.04 101 253 C99.89932004 252.18278283 98.79430269 251.37140549 97.6875 250.5625 C97.07261719 250.11003906 96.45773437 249.65757812 95.82421875 249.19140625 C93.90322899 247.82663692 93.90322899 247.82663692 91 247 C91 253.6 91 260.2 91 267 C92.32 266.34 93.64 265.68 95 265 C95.02191406 265.69609375 95.04382813 266.3921875 95.06640625 267.109375 C96.46662501 271.44478035 99.47327122 273.43406017 102.9375 276.25 C104.31186293 277.40155053 105.6855594 278.55389693 107.05859375 279.70703125 C107.7326123 280.26729004 108.40663086 280.82754883 109.10107422 281.40478516 C111.62243414 283.52288309 114.0651176 285.72089145 116.5 287.9375 C120.27755912 291.36130777 124.11130465 294.70306264 128 298 C126.41708016 302.30962693 123.11067071 304.77695507 119.6875 307.625 C119.06955566 308.14408936 118.45161133 308.66317871 117.81494141 309.19799805 C115.88483428 310.80887439 113.94372185 312.40559036 112 314 C111.38431152 314.51095215 110.76862305 315.0219043 110.13427734 315.54833984 C108.39347909 316.98577805 106.63808958 318.40253753 104.875 319.8125 C104.34350342 320.25094238 103.81200684 320.68938477 103.2644043 321.14111328 C99.53925376 324.05551333 99.53925376 324.05551333 96.97705078 323.79174805 C93.52089009 322.40766196 91.95029173 319.02190783 90 316 C89.03642684 314.55123746 88.07153389 313.10335203 87.10546875 311.65625 C86.60321777 310.89828125 86.1009668 310.1403125 85.58349609 309.359375 C82.89703588 305.35660727 80.10324326 301.43043601 77.3125 297.5 C76.28773648 296.05210027 75.26299474 294.60418513 74.23828125 293.15625 C73.13033203 291.59390625 73.13033203 291.59390625 72 290 C69.69 290.99 67.38 291.98 65 293 C65 293.66 65 294.32 65 295 C63.35 295 61.7 295 60 295 C59.67 292.36 59.34 289.72 59 287 C59.5878125 287.7734375 59.5878125 287.7734375 60.1875 288.5625 C61.0846875 289.2740625 61.0846875 289.2740625 62 290 C64.65466049 289.76956136 64.65466049 289.76956136 67 289 C66.67 287.68 66.34 286.36 66 285 C66.66 285 67.32 285 68 285 C60.48973994 273.72094779 52.6771765 262.7502949 44.3828125 252.0324707 C38.9391033 244.99260379 38.9391033 244.99260379 36.66015625 241.45703125 C35.23339723 238.91222501 35.23339723 238.91222501 33 238 C34.49843702 242.59003984 37.12126712 245.98989415 40.125 249.6875 C40.61202393 250.29674316 41.09904785 250.90598633 41.60083008 251.53369141 C42.58918859 252.76885595 43.580137 254.0019528 44.57373047 255.23291016 C45.88947802 256.86306777 47.19839576 258.49835856 48.50390625 260.13671875 C50.33127185 262.42828098 52.16327683 264.71593738 54 267 C53.67 267.66 53.34 268.32 53 269 C49.37 264.71 45.74 260.42 42 256 C42.99 257.98 43.98 259.96 45 262 C44.67 262.66 44.34 263.32 44 264 C42.58238693 261.64639882 41.1658896 259.29213772 39.75 256.9375 C39.15638672 255.95233398 39.15638672 255.95233398 38.55078125 254.94726562 C38.15761719 254.29306641 37.76445312 253.63886719 37.359375 252.96484375 C36.96427734 252.30983887 36.56917969 251.65483398 36.16210938 250.97998047 C35.38764361 249.66046001 34.63865473 248.32565161 33.91601562 246.97705078 C31.90793428 242.95708997 31.90793428 242.95708997 28 241 C27.32142035 239.00401049 26.65655728 237.00334145 26 235 C24.05363957 232.35310903 21.93801098 229.93808491 19.77734375 227.46484375 C17.89483072 224.85414985 17.4296462 223.14543452 17 220 C16.67 219.34 16.34 218.68 16 218 C15.01 218 14.02 218 13 218 C6.66666667 218 0.33333333 218 -6 218 C-6.14534014 229.70795574 -5.71125207 241.31514456 -5 253 C-1.7 253.33 1.6 253.66 5 254 C6.56631493 259.85967724 7.63980723 265.6477911 8.47265625 271.65234375 C8.60063095 272.55191299 8.72860565 273.45148224 8.86045837 274.37831116 C9.12875415 276.26975075 9.39504572 278.16147563 9.65942383 280.0534668 C10.06092755 282.92624906 10.46838282 285.79813695 10.87695312 288.66992188 C11.13836898 290.51817996 11.39944784 292.36648574 11.66015625 294.21484375 C11.77996353 295.06199448 11.89977081 295.9091452 12.02320862 296.78196716 C12.77613406 302.17980744 13.4198698 307.58080136 14 313 C16.1490452 312.57855998 18.29422788 312.13737951 20.4375 311.6875 C21.63246094 311.44386719 22.82742188 311.20023437 24.05859375 310.94921875 C25.02925781 310.63597656 25.99992188 310.32273437 27 310 C28.09677407 306.70967779 27.91589004 305.77528284 27.1015625 302.51171875 C26.87355957 301.59148926 26.64555664 300.67125977 26.41064453 299.72314453 C26.15138184 298.72138184 25.89211914 297.71961914 25.625 296.6875 C25.36187012 295.64964355 25.09874023 294.61178711 24.82763672 293.54248047 C22.13955176 283.15232149 19.05235827 272.88371789 15.89697266 262.62768555 C15.5210498 261.40218994 15.14512695 260.17669434 14.7578125 258.9140625 C14.4189502 257.8204541 14.08008789 256.7268457 13.73095703 255.60009766 C13 253 13 253 13 251 C11.68 250.67 10.36 250.34 9 250 C23.02535658 243.4548336 23.02535658 243.4548336 29 245 C30.34350586 246.67260742 30.34350586 246.67260742 31.65234375 248.98046875 C32.16829102 249.88659912 32.68423828 250.79272949 33.21582031 251.72631836 C36.92865953 258.53877883 40.57560657 265.38353754 44.1875 272.25 C45.00171145 273.79179432 45.816163 275.33346186 46.63085938 276.875 C47.41427745 278.35926157 48.19748795 279.84363272 48.98046875 281.328125 C49.33989059 282.00949524 49.69931244 282.69086548 50.06962585 283.3928833 C50.41040665 284.04085876 50.75118744 284.68883423 51.10229492 285.35644531 C51.58924332 286.27907166 51.58924332 286.27907166 52.08602905 287.22033691 C52.95413914 288.91070079 53.76085375 290.63218275 54.5637207 292.35449219 C55.86927244 295.24981514 55.86927244 295.24981514 59 297 C59 297.66 59 298.32 59 299 C60.03772889 301.28300356 61.11718796 303.51438057 62.25 305.75 C62.59554932 306.43868164 62.94109863 307.12736328 63.29711914 307.83691406 C67.0319151 315.20148251 71.02260466 322.42776153 75.04980469 329.63574219 C75.54770508 330.53454102 76.04560547 331.43333984 76.55859375 332.359375 C77.22846313 333.55771973 77.22846313 333.55771973 77.91186523 334.78027344 C78.93307161 336.86347029 79.53965174 338.7341678 80 341 C76.26512348 342.38881395 72.52975622 343.77629905 68.79394531 345.16259766 C67.52525769 345.6335939 66.25670066 346.10494207 64.98828125 346.57666016 C63.15660089 347.25778029 61.32439858 347.93749629 59.4921875 348.6171875 C58.39245605 349.02565918 57.29272461 349.43413086 56.15966797 349.85498047 C54.59563232 350.42176514 54.59563232 350.42176514 53 351 C51.43789795 351.56871826 51.43789795 351.56871826 49.84423828 352.14892578 C47 353 47 353 43 353 C30 314.31494596 30 314.31494596 30 311 C29.40832031 311.20496094 28.81664062 311.40992188 28.20703125 311.62109375 C24.16339184 312.9997571 20.23144751 314.31750847 16 315 C14.64350775 319.06947674 15.52901802 322.51596341 16.21484375 326.6484375 C16.41673058 327.92275131 16.41673058 327.92275131 16.62269592 329.22280884 C17.05421136 331.94133585 17.49519269 334.65820964 17.9375 337.375 C18.37510095 340.08480602 18.81059332 342.79490367 19.24159241 345.50576782 C19.51012941 347.19260599 19.78261968 348.87882081 20.05955505 350.56430054 C20.18290726 351.33504913 20.30625946 352.10579773 20.43334961 352.89990234 C20.54295517 353.57258148 20.65256073 354.24526062 20.76548767 354.93832397 C21.03167021 357.27842336 21 359.64481036 21 362 C15.72 362 10.44 362 5 362 C5.33 365.3 5.66 368.6 6 372 C7.55332031 372.12117188 9.10664063 372.24234375 10.70703125 372.3671875 C12.74222512 372.53600542 14.7773794 372.70530108 16.8125 372.875 C17.83666016 372.95363281 18.86082031 373.03226562 19.91601562 373.11328125 C20.89892578 373.19707031 21.88183594 373.28085937 22.89453125 373.3671875 C24.25348511 373.47716064 24.25348511 373.47716064 25.63989258 373.58935547 C28 374 28 374 31 376 C30.67 376.99 30.34 377.98 30 379 C31.670625 379.37125 31.670625 379.37125 33.375 379.75 C37 381 37 381 38.5 382.9375 C39 385 39 385 38 388 C34.7085089 388.08857863 31.41733195 388.1409104 28.125 388.1875 C26.74828125 388.22520508 26.74828125 388.22520508 25.34375 388.26367188 C18.71414993 388.33370286 13.23823638 387.18171877 7 385 C7.12769775 385.72059601 7.25539551 386.44119202 7.38696289 387.18362427 C8.67060006 394.62181651 9.63981268 402.05030249 10.4375 409.5546875 C10.69513502 411.90366531 10.9529528 414.25262307 11.2109375 416.6015625 C11.60832275 420.25494304 12.0035961 423.90852808 12.39550781 427.5625 C12.7787613 431.12304856 13.1701227 434.68263452 13.5625 438.2421875 C13.677146 439.33288544 13.79179199 440.42358337 13.90991211 441.54733276 C14.54060005 447.39777232 14.54060005 447.39777232 16.08984375 453.04736328 C16.99233892 455.97514671 17.04913887 457.83350185 16.96707153 460.86029053 C16.91738023 467.3844163 17.63249797 473.72092903 18.43701172 480.18798828 C18.58985626 481.45951248 18.74270081 482.73103668 18.900177 484.04109192 C19.31595749 487.49880966 19.73972428 490.95550533 20.16500235 494.41206598 C20.61193359 498.05634973 21.05129008 501.70154682 21.4914856 505.34664917 C22.32678223 512.25403517 23.16867494 519.16060001 24.0130378 526.06688297 C25.05993926 534.63244248 26.09833947 543.19902896 27.13671875 551.765625 C28.2825507 561.21635806 29.4297845 570.66691455 30.58266675 580.11679041 C31.26233836 585.68870726 31.93829766 591.26107093 32.61397552 596.83347321 C32.96268359 599.69389655 33.31694551 602.55355883 33.67340088 605.4130249 C33.85935098 606.92882098 34.0452127 608.44462791 34.23095703 609.96044922 C34.38323761 611.18303436 34.53551819 612.40561951 34.69241333 613.66525269 C35.01189751 617.12898866 35.05460578 620.52357045 35 624 C35.804375 623.835 36.60875 623.67 37.4375 623.5 C41.65887352 622.90752652 45.74664545 622.91493291 50 623 C50.33 624.65 50.66 626.3 51 628 C49.43883181 628.33951619 47.87598662 628.67132544 46.3125 629 C45.44238281 629.185625 44.57226562 629.37125 43.67578125 629.5625 C41.06287036 629.98972047 38.64186962 630.07616201 36 630 C36.45408127 632.52166467 36.9131407 635.04225816 37.375 637.5625 C37.50132812 638.26697266 37.62765625 638.97144531 37.7578125 639.69726562 C38.59281367 644.22714697 39.66723956 648.59030133 41 653 C40.67 653.33 40.34 653.66 40 654 C39.42435568 661.42925679 40.41222665 668.84868829 41.3125 676.2109375 C41.44567627 677.34149567 41.57885254 678.47205383 41.71606445 679.63687134 C42.13858982 683.21691988 42.5688395 686.79598206 43 690.375 C43.42993338 693.97557184 43.85820057 697.57632798 44.28393555 701.17739868 C44.5483052 703.41028672 44.81529757 705.64286615 45.08520508 707.87509155 C45.26539185 709.38784164 45.26539185 709.38784164 45.44921875 710.93115234 C45.55580811 711.81588226 45.66239746 712.70061218 45.7722168 713.6121521 C46 716 46 716 46 720 C43.36 720 40.72 720 38 720 C37.34 717.69 36.68 715.38 36 713 C35.67 715.31 35.34 717.62 35 720 C30.71 720 26.42 720 22 720 C20.84931333 711.29723383 19.80390454 702.63278561 19.24609375 693.8671875 C19.04481192 691.00646286 19.04481192 691.00646286 18.50439453 688.24023438 C17.98383924 684.89618314 17.79217949 681.67073255 17.68359375 678.2890625 C17.64169922 677.04511719 17.59980469 675.80117188 17.55664062 674.51953125 C17.51732422 673.23433594 17.47800781 671.94914063 17.4375 670.625 C17.39431641 669.31660156 17.35113281 668.00820313 17.30664062 666.66015625 C17.20087571 663.44020203 17.09878421 660.22017469 17 657 C16.34 657 15.68 657 15 657 C15 656.34 15 655.68 15 655 C13.78119141 655.03029297 12.56238281 655.06058594 11.30664062 655.09179688 C6.70691561 655.20559365 2.10713029 655.31677861 -2.49267578 655.42724609 C-4.46892964 655.4750561 -6.44516737 655.52353835 -8.42138672 655.57275391 C-20.28392239 655.8676622 -32.13343868 656.07700004 -44 656 C-43.82597656 656.75667969 -43.65195312 657.51335938 -43.47265625 658.29296875 C-42.97069963 661.16781121 -43.31041004 663.47012167 -43.7421875 666.33203125 C-44.34009857 672.51950487 -44.06782673 678.7900864 -44 685 C-44.33 685 -44.66 685 -45 685 C-45.08564209 686.02472412 -45.17128418 687.04944824 -45.25952148 688.10522461 C-45.57739701 691.89435603 -45.90119018 695.68296214 -46.22680664 699.47143555 C-46.36710412 701.11355007 -46.50577995 702.75580397 -46.64282227 704.39819336 C-46.839683 706.75412602 -47.04230347 709.10950169 -47.24609375 711.46484375 C-47.3065538 712.20339096 -47.36701385 712.94193817 -47.42930603 713.7028656 C-47.88612829 718.88612829 -47.88612829 718.88612829 -49 720 C-51.67058851 720.14115161 -54.32432238 720.04247107 -57 720 C-56.94465088 719.22624023 -56.88930176 718.45248047 -56.83227539 717.65527344 C-55.72562463 702.10919094 -54.6888214 686.5709889 -54 671 C-54.33 671 -54.66 671 -55 671 C-55.33 667.7 -55.66 664.4 -56 661 C-55.34 660.67 -54.68 660.34 -54 660 C-53.34444881 657.47266765 -53.34444881 657.47266765 -53 655 C-54.65 654.67 -56.3 654.34 -58 654 C-58 654.99 -58 655.98 -58 657 C-58.66 657 -59.32 657 -60 657 C-59.9690625 658.918125 -59.9690625 658.918125 -59.9375 660.875 C-59.875 664.75 -59.875 664.75 -61 667 C-60.01 666.67 -59.02 666.34 -58 666 C-58 667.65 -58 669.3 -58 671 C-58.33 670.34 -58.66 669.68 -59 669 C-59.66 669 -60.32 669 -61 669 C-62.13603795 680.18390757 -63.19680737 691.34056782 -63.65795898 702.57568359 C-63.89799434 707.89799434 -63.89799434 707.89799434 -65 709 C-65.39454223 710.84599688 -65.74176866 712.70225822 -66.0625 714.5625 C-66.23910156 715.57441406 -66.41570312 716.58632813 -66.59765625 717.62890625 C-66.73042969 718.41136719 -66.86320312 719.19382812 -67 720 C-69.31 720 -71.62 720 -74 720 C-73.67 716.37 -73.34 712.74 -73 709 C-74.98 709 -76.96 709 -79 709 C-79.495 711.475 -79.495 711.475 -80 714 C-80.33 714 -80.66 714 -81 714 C-81 711.69 -81 709.38 -81 707 C-78.36 707 -75.72 707 -73 707 C-72.37978378 701.76877604 -71.77381905 696.53617468 -71.18115234 691.30175781 C-70.9774083 689.52037849 -70.76973882 687.73944366 -70.55810547 685.95898438 C-70.25502165 683.40340442 -69.96597418 680.84657156 -69.6796875 678.2890625 C-69.58186981 677.49005524 -69.48405212 676.69104797 -69.38327026 675.86782837 C-69.1721586 673.9191196 -69.07574876 671.9586465 -69 670 C-69.66 669.34 -70.32 668.68 -71 668 C-70.01 668 -69.02 668 -68 668 C-67.80477627 665.41703983 -67.61855597 662.83395921 -67.4375 660.25 C-67.38142578 659.52039063 -67.32535156 658.79078125 -67.26757812 658.0390625 C-66.95997277 653.89832931 -66.95997277 653.89832931 -67.55493164 649.81933594 C-67.7018042 649.21895508 -67.84867676 648.61857422 -68 648 C-67.67 647.67 -67.34 647.34 -67 647 C-66.95936168 645.33382885 -66.957279 643.66611905 -67 642 C-68.21042969 642.24556641 -68.21042969 642.24556641 -69.4453125 642.49609375 C-73.62768788 643.08897993 -77.65944818 643.10894252 -81.875 643.0625 C-82.65875 643.05798828 -83.4425 643.05347656 -84.25 643.04882812 C-86.16670014 643.03714093 -88.08336048 643.01920908 -90 643 C-90.042721 641.33388095 -90.04063832 639.66617115 -90 638 C-87.88074396 635.88074396 -83.3803907 636.58168983 -80.4375 636.4375 C-79.22803711 636.37272461 -79.22803711 636.37272461 -77.99414062 636.30664062 C-75.99631195 636.20024738 -73.9981793 636.09959112 -72 636 C-72 633.36 -72 630.72 -72 628 C-69.36 628.33 -66.72 628.66 -64 629 C-63.87882812 627.76507812 -63.75765625 626.53015625 -63.6328125 625.2578125 C-62.50442791 613.82866157 -61.29549619 602.41139194 -60 591 C-60.66 590.67 -61.32 590.34 -62 590 C-61.01 590 -60.02 590 -59 590 C-58.96261719 589.18402344 -58.92523438 588.36804688 -58.88671875 587.52734375 C-58.2249032 575.60168704 -56.63836751 563.82614664 -55 552 C-56.65 552 -58.3 552 -60 552 C-60 551.67 -60 551.34 -60 551 C-58.35 550.67 -56.7 550.34 -55 550 C-53.35 537.79 -51.7 525.58 -50 513 C-51.98 513 -53.96 513 -56 513 C-58 511 -58 511 -58.125 507.875 C-58.08375 506.92625 -58.0425 505.9775 -58 505 C-57.67 505 -57.34 505 -57 505 C-56.34 506.98 -55.68 508.96 -55 511 C-53.35 511.33 -51.7 511.66 -50 512 C-49.87882813 510.77667969 -49.75765625 509.55335938 -49.6328125 508.29296875 C-48.46345592 496.52411236 -47.25055062 484.76049736 -46 473 C-47.98 473 -49.96 473 -52 473 C-52.33 475.64 -52.66 478.28 -53 481 C-53.33 481 -53.66 481 -54 481 C-54.125 473.25 -54.125 473.25 -53 471 C-50.36 471.33 -47.72 471.66 -45 472 C-44.83225597 469.22922802 -44.66576064 466.45839073 -44.5 463.6875 C-44.42845703 462.50897461 -44.42845703 462.50897461 -44.35546875 461.30664062 C-44.31035156 460.54931641 -44.26523437 459.79199219 -44.21875 459.01171875 C-44.17685547 458.31522217 -44.13496094 457.61872559 -44.09179688 456.90112305 C-44.01299029 455.26903034 -44 453.63399421 -44 452 C-43.67 451.34 -43.34 450.68 -43 450 C-42.76901636 447.85841099 -42.58841319 445.7112164 -42.4375 443.5625 C-42.35371094 442.40878906 -42.26992188 441.25507813 -42.18359375 440.06640625 C-42.06268431 438.04696134 -42 436.02306125 -42 434 C-41.72748089 432.33009564 -41.43224776 430.66386479 -41.125 429 C-40.17448544 423.43270042 -39.47721584 417.86339485 -38.875 412.25 C-38.78750488 411.45851563 -38.70000977 410.66703125 -38.60986328 409.8515625 C-38.21410102 406.04205216 -37.96175102 402.31600736 -38.0078125 398.484375 C-38 395 -38 395 -37 394 C-36.76924918 392.65252916 -36.58846937 391.29622435 -36.4375 389.9375 C-36.293125 388.638125 -36.14875 387.33875 -36 386 C-37.00160156 386.03480469 -38.00320313 386.06960938 -39.03515625 386.10546875 C-52.16149221 386.42695023 -52.16149221 386.42695023 -58 383 C-58.969375 382.443125 -59.93875 381.88625 -60.9375 381.3125 C-61.618125 380.879375 -62.29875 380.44625 -63 380 C-62.67 379.01 -62.34 378.02 -62 377 C-62.66 376.67 -63.32 376.34 -64 376 C-61.04222565 375.51716004 -58.08385071 375.03866235 -55.125 374.5625 C-54.30257812 374.42779297 -53.48015625 374.29308594 -52.6328125 374.15429688 C-46.77035663 373.21538793 -40.91326309 372.5288989 -35 372 C-32.50657715 353.01646133 -30.12818107 334.02858669 -28 315 C-28.99 315.33 -29.98 315.66 -31 316 C-31.93407076 318.50595674 -31.93407076 318.50595674 -32.4921875 321.61328125 C-32.73936523 322.79229004 -32.98654297 323.97129883 -33.24121094 325.18603516 C-33.61681152 327.07394775 -33.61681152 327.07394775 -34 329 C-34.25813477 330.23927246 -34.51626953 331.47854492 -34.78222656 332.75537109 C-35.71219247 337.22485409 -36.622423 341.69818284 -37.52587891 346.1730957 C-37.91327291 348.08854384 -38.30423346 350.00326959 -38.6953125 351.91796875 C-38.92234863 353.03969482 -39.14938477 354.1614209 -39.38330078 355.31713867 C-40 358 -40 358 -41 360 C-46.14903059 359.41428684 -50.79396697 358.23036407 -55.68359375 356.49609375 C-56.38396255 356.2533522 -57.08433136 356.01061066 -57.80592346 355.76051331 C-60.01857023 354.99211275 -62.22802727 354.21497404 -64.4375 353.4375 C-65.94706256 352.91152622 -67.45682647 352.38612993 -68.96679688 351.86132812 C-72.64689197 350.58088127 -76.32415492 349.29259439 -80 348 C-79.42831052 343.00122061 -77.7783105 338.89538661 -75.62109375 334.40625 C-74.94055485 332.94931232 -74.26022255 331.49227813 -73.58007812 330.03515625 C-72.50853777 327.76228126 -71.43333186 325.49123931 -70.35375977 323.22216797 C-69.30802148 321.01717453 -68.27644322 318.80596678 -67.24609375 316.59375 C-66.92112411 315.92170532 -66.59615448 315.24966064 -66.26133728 314.55725098 C-64.39561207 310.53252888 -63.64405705 307.43065452 -64 303 C-65.98 303 -67.96 303 -70 303 C-70.66 301.68 -71.32 300.36 -72 299 C-74.55467554 299.36184725 -75.70505165 299.64467509 -77.38110352 301.66381836 C-77.79287842 302.38190674 -78.20465332 303.09999512 -78.62890625 303.83984375 C-79.33805176 305.05172363 -79.33805176 305.05172363 -80.06152344 306.28808594 C-80.5568457 307.16239258 -81.05216797 308.03669922 -81.5625 308.9375 C-82.62022402 310.75441285 -83.6788388 312.57080738 -84.73828125 314.38671875 C-85.27533691 315.31532715 -85.81239258 316.24393555 -86.36572266 317.20068359 C-88.92856868 321.59052413 -91.58746845 325.9201486 -94.25 330.25 C-95.17199161 331.75513691 -96.09387802 333.26033826 -97.015625 334.765625 C-97.67046875 335.83296875 -98.3253125 336.9003125 -99 338 C-102.895275 336.15335111 -106.09175636 333.68824675 -109.4375 331 C-110.68055823 330.01247761 -111.9240589 329.02551194 -113.16796875 328.0390625 C-113.80009277 327.53665039 -114.4322168 327.03423828 -115.08349609 326.51660156 C-118.12111208 324.11282188 -121.18242243 321.74036101 -124.25 319.375 C-124.79841553 318.94960938 -125.34683105 318.52421875 -125.91186523 318.0859375 C-128.82512978 315.84058407 -128.82512978 315.84058407 -132 314 C-130.69412901 311.1438686 -129.27880825 308.99823752 -127.12890625 306.71484375 C-126.55954346 306.10688965 -125.99018066 305.49893555 -125.40356445 304.87255859 C-124.79601318 304.23398926 -124.18846191 303.59541992 -123.5625 302.9375 C-122.94012451 302.27572754 -122.31774902 301.61395508 -121.67651367 300.93212891 C-116.97123469 295.95332214 -112.14225966 291.11743733 -107.20703125 286.3671875 C-105.04344749 284.04660031 -103.5167503 281.77659176 -102 279 C-102.5053125 278.51789063 -103.010625 278.03578125 -103.53125 277.5390625 C-104.1809375 276.90742188 -104.830625 276.27578125 -105.5 275.625 C-106.1496875 274.99851562 -106.799375 274.37203125 -107.46875 273.7265625 C-109 272 -109 272 -109 270 C-114.07425402 270.38814256 -116.90182263 273.15391737 -120.5 276.4375 C-121.73853773 277.53390775 -122.97947788 278.62760692 -124.22265625 279.71875 C-124.84930176 280.26917969 -125.47594727 280.81960938 -126.12158203 281.38671875 C-133.06885318 287.35338989 -140.53721794 292.70413338 -148 298 C-148.38220703 297.39639648 -148.76441406 296.79279297 -149.15820312 296.17089844 C-159.40811349 279.97403215 -159.40811349 279.97403215 -170 264 C-167.95461482 261.79201867 -166.07469032 260.34983829 -163.38647461 259.00708008 C-162.31537697 258.46685966 -162.31537697 258.46685966 -161.22264099 257.91572571 C-160.07409386 257.34835945 -160.07409386 257.34835945 -158.90234375 256.76953125 C-158.11227432 256.37424728 -157.3222049 255.97896332 -156.50819397 255.57170105 C-154.84112706 254.73933597 -153.17258594 253.90991779 -151.50268555 253.08325195 C-148.93999269 251.81373484 -146.38281954 250.53359345 -143.82617188 249.25195312 C-142.20604554 248.44467726 -140.58561313 247.6380153 -138.96484375 246.83203125 C-138.19712143 246.44771439 -137.42939911 246.06339752 -136.63841248 245.66743469 C-131.23104034 243 -131.23104034 243 -129 243 C-129.54140625 241.73542969 -129.54140625 241.73542969 -130.09375 240.4453125 C-130.5578125 239.34960938 -131.021875 238.25390625 -131.5 237.125 C-131.9640625 236.03445312 -132.428125 234.94390625 -132.90625 233.8203125 C-134 231 -134 231 -134 229 C-134.8156543 229.28198242 -135.63130859 229.56396484 -136.47167969 229.85449219 C-139.5579257 230.92109462 -142.64437594 231.9871022 -145.73095703 233.05273438 C-147.05558094 233.51018612 -148.38012787 233.96786085 -149.70458984 234.42578125 C-154.13413956 235.95714946 -158.56603605 237.48145509 -163 239 C-164.17498047 239.40283203 -165.34996094 239.80566406 -166.56054688 240.22070312 C-167.63884766 240.58615234 -168.71714844 240.95160156 -169.828125 241.328125 C-171.25753418 241.81394043 -171.25753418 241.81394043 -172.71582031 242.30957031 C-175 243 -175 243 -177 243 C-177.32871094 241.75863281 -177.32871094 241.75863281 -177.6640625 240.4921875 C-177.98117188 239.29851562 -178.29828125 238.10484375 -178.625 236.875 C-178.79741211 236.22499023 -178.96982422 235.57498047 -179.14746094 234.90527344 C-180.27589131 230.66730355 -181.42927913 226.43699819 -182.6015625 222.2109375 C-182.87403809 221.22496582 -183.14651367 220.23899414 -183.42724609 219.22314453 C-183.97130576 217.25710339 -184.518456 215.29191463 -185.06884766 213.32763672 C-185.31940918 212.42029785 -185.5699707 211.51295898 -185.828125 210.578125 C-186.0540332 209.76762695 -186.27994141 208.95712891 -186.51269531 208.12207031 C-187 206 -187 206 -187 203 C-183.83745194 201.41872597 -180.36520588 201.39296246 -176.88671875 201.02734375 C-176.08015335 200.93997452 -175.27358795 200.85260529 -174.44258118 200.7625885 C-172.73381169 200.57838967 -171.02483501 200.39610442 -169.31567383 200.21557617 C-166.70794085 199.93966276 -164.10102671 199.65683822 -161.49414062 199.37304688 C-159.83337775 199.19489798 -158.17257174 199.0171506 -156.51171875 198.83984375 C-155.73446945 198.75548569 -154.95722015 198.67112762 -154.15641785 198.58421326 C-150.42194957 198.19315162 -146.75590974 197.89982377 -143 198 C-142.34 195.36 -141.68 192.72 -141 190 C-141.66 190 -142.32 190 -143 190 C-142.814375 189.401875 -142.62875 188.80375 -142.4375 188.1875 C-141.77906313 185.83591238 -141.77906313 185.83591238 -143 183 C-157.96928249 181.76569074 -172.99155456 181.45294775 -188 181 C-187.91020874 179.95730957 -187.91020874 179.95730957 -187.81860352 178.89355469 C-187.1218537 170.68364307 -186.51660232 162.46896335 -185.9375 154.25 C-185.84662109 152.96867188 -185.75574219 151.68734375 -185.66210938 150.3671875 C-185.44074875 147.2448376 -185.22005721 144.12244199 -185 141 C-175.38847327 141.67487504 -166.20223984 144.31857122 -156.90649414 146.71240234 C-154.70393133 147.27723512 -152.49872527 147.83060585 -150.29296875 148.3828125 C-149.28353462 148.6483342 -149.28353462 148.6483342 -148.25370789 148.91921997 C-144.54854707 149.84070064 -142.82066541 149.95516635 -139 149 C-137.68 144.38 -136.36 139.76 -135 135 C-136.98 134.67 -138.96 134.34 -141 134 C-143.05026245 133.34825134 -143.05026245 133.34825134 -144.89404297 132.60131836 C-145.5943161 132.32110336 -146.29458923 132.04088837 -147.01608276 131.75218201 C-147.75069733 131.45111038 -148.48531189 131.15003876 -149.2421875 130.83984375 C-150.39474533 130.37584923 -150.39474533 130.37584923 -151.57058716 129.90248108 C-154.0077306 128.91982998 -156.44136771 127.92881046 -158.875 126.9375 C-160.5336292 126.26702133 -162.19248119 125.59709351 -163.8515625 124.92773438 C-167.90364816 123.29152095 -171.95261189 121.64779724 -176 120 C-175.19987321 115.40553346 -173.47421988 111.71971006 -171.3125 107.625 C-167.80329314 100.83689281 -164.89792991 93.97238768 -162.2265625 86.81640625 C-161 84 -161 84 -159 83 C-152.87074238 87.0533401 -146.77511201 91.13929041 -140.75390625 95.3515625 C-139.73232422 96.05667969 -138.71074219 96.76179688 -137.65820312 97.48828125 C-135.55757427 98.93817902 -133.46667149 100.40225021 -131.38476562 101.87890625 C-130.37220703 102.57113281 -129.35964844 103.26335937 -128.31640625 103.9765625 C-126.96204468 104.92136475 -126.96204468 104.92136475 -125.58032227 105.88525391 C-123.02482815 107.30057245 -123.02482815 107.30057245 -120.28027344 106.31054688 C-117.66577851 104.8079121 -116.39904544 103.3428097 -114.6875 100.875 C-114.17574219 100.15054688 -113.66398437 99.42609375 -113.13671875 98.6796875 C-112.76160156 98.12539062 -112.38648438 97.57109375 -112 97 C-113.60480008 92.74423271 -116.82154267 90.14102073 -120.125 87.1875 C-120.71176514 86.65487549 -121.29853027 86.12225098 -121.90307617 85.57348633 C-126.2228298 81.6630414 -130.58912236 77.80728385 -135 74 C-136.50080257 72.68841779 -138.00081067 71.3759259 -139.5 70.0625 C-140.1703125 69.47597656 -140.840625 68.88945313 -141.53125 68.28515625 C-142.0159375 67.86105469 -142.500625 67.43695313 -143 67 C-141.49338216 63.45501685 -139.42442375 61.18632516 -136.6875 58.5 C-135.92824219 57.7471875 -135.16898438 56.994375 -134.38671875 56.21875 C-132 54 -132 54 -129.5078125 52.078125 C-126.65571488 49.71470454 -124.49538055 47.14346218 -122.1875 44.25 C-121.00220703 42.77273437 -121.00220703 42.77273437 -119.79296875 41.265625 C-119.20128906 40.51796875 -118.60960937 39.7703125 -118 39 C-115.02271967 40.30275789 -113.31349963 41.50769109 -111.40625 44.1328125 C-110.70483887 45.08414063 -110.70483887 45.08414063 -109.98925781 46.0546875 C-109.49780273 46.73789062 -109.00634766 47.42109375 -108.5 48.125 C-107.44295333 49.565284 -106.38565373 51.00538241 -105.328125 52.4453125 C-104.78478516 53.19071289 -104.24144531 53.93611328 -103.68164062 54.70410156 C-100.9050684 58.49488049 -98.07539458 62.2455572 -95.25 66 C-94.23412572 67.35397967 -93.2184774 68.70812893 -92.203125 70.0625 C-91.47609375 71.031875 -90.7490625 72.00125 -90 73 C-84.24428043 72.47695335 -84.24428043 72.47695335 -80 69 C-77.8125 67.8125 -77.8125 67.8125 -76 67 C-76.55554491 62.34257295 -77.83857013 58.89422337 -80.01953125 54.75390625 C-80.62990234 53.58666016 -81.24027344 52.41941406 -81.86914062 51.21679688 C-82.51684541 49.99865449 -83.16463246 48.78055584 -83.8125 47.5625 C-84.44930624 46.34869447 -85.08538043 45.13450457 -85.72070312 43.91992188 C-88.21126599 39.17484656 -90.7049217 34.44431218 -93.44921875 29.83984375 C-95 27 -95 27 -95 24 C-94.30962646 23.68772461 -93.61925293 23.37544922 -92.90795898 23.05371094 C-89.74953115 21.62266004 -86.593509 20.18637699 -83.4375 18.75 C-82.35146484 18.25886719 -81.26542969 17.76773437 -80.14648438 17.26171875 C-73.37954285 14.18101061 -73.37954285 14.18101061 -66.84765625 10.640625 C-64 9 -64 9 -62 9 C-60.1449371 14.8012462 -58.29361811 20.60366842 -56.44580078 26.40722656 C-55.81630277 28.38249187 -55.18577216 30.3574284 -54.55419922 32.33203125 C-53.64801481 35.16581357 -52.74551706 38.00074687 -51.84375 40.8359375 C-51.4172113 42.16569107 -51.4172113 42.16569107 -50.98205566 43.52230835 C-50.72178589 44.34300812 -50.46151611 45.16370789 -50.19335938 46.00927734 C-49.96241577 46.73319672 -49.73147217 47.45711609 -49.49353027 48.20297241 C-49 50 -49 50 -49 52 C-40.585 50.02 -40.585 50.02 -32 48 C-32.58856482 39.28924066 -33.67610929 30.72569252 -34.98364258 22.09521484 C-35.8554361 16.07827794 -36.4738266 10.08402722 -36 4 C-34.10056527 2.10056527 -30.80647721 2.48781266 -28.26171875 2.24609375 C-27.584543 2.18092056 -26.90736725 2.11574738 -26.20967102 2.04859924 C-24.77319974 1.91123609 -23.33651984 1.77604016 -21.8996582 1.64282227 C-19.70670193 1.43928223 -17.51447198 1.22902673 -15.32226562 1.01757812 C-4.61266155 0 -4.61266155 0 0 0 Z M-3 48 C-4.59063326 64.50338124 -6.13347568 80.98900931 -6.75 97.5625 C-6.79439209 98.70823486 -6.83878418 99.85396973 -6.88452148 101.03442383 C-7.02930975 105.01727956 -7.02930975 105.01727956 -7 109 C-5.33657163 110.66342837 -3.2174291 110.36048097 -0.9375 110.5625 C-0.01839844 110.64628906 0.90070313 110.73007813 1.84765625 110.81640625 C2.91306641 110.90728516 2.91306641 110.90728516 4 111 C4.12383057 109.72133057 4.24766113 108.44266113 4.37524414 107.12524414 C4.94594681 102.00851557 5.92241792 97.0279524 6.99609375 91.99609375 C7.18969986 91.07337173 7.38330597 90.15064972 7.58277893 89.19996643 C7.99012176 87.26252921 8.39948769 85.32551632 8.81079102 83.38891602 C9.4363004 80.4431494 10.05560373 77.49613134 10.67382812 74.54882812 C11.07255515 72.6561738 11.47163193 70.76359312 11.87109375 68.87109375 C12.05449814 68.00004501 12.23790253 67.12899628 12.42686462 66.23155212 C13.51322822 61.12416123 14.70375665 56.05830585 16 51 C12.29178372 48.64891442 8.51394762 48.56844942 4.25 48.375 C3.55261719 48.33632813 2.85523438 48.29765625 2.13671875 48.2578125 C0.42489182 48.16401376 -1.28751682 48.08093826 -3 48 Z M-41.25 51.3125 C-42.83554687 51.67794922 -42.83554687 51.67794922 -44.453125 52.05078125 C-45.29359375 52.36402344 -46.1340625 52.67726562 -47 53 C-48.08519803 56.25559409 -47.94343575 57.07252269 -47.1015625 60.26953125 C-46.87364014 61.14432129 -46.64571777 62.01911133 -46.41088867 62.92041016 C-46.15154541 63.8747998 -45.89220215 64.82918945 -45.625 65.8125 C-45.22921753 67.30209229 -45.22921753 67.30209229 -44.82543945 68.82177734 C-42.08975946 78.96203117 -39.05931959 89.01603378 -35.98486328 99.05786133 C-35.61216309 100.27884521 -35.23946289 101.4998291 -34.85546875 102.7578125 C-34.52184326 103.8420752 -34.18821777 104.92633789 -33.84448242 106.04345703 C-32.29238863 111.4773558 -32.29238863 111.4773558 -32 114 C-34.62451617 116.62451617 -36.4877828 116.5832868 -40.125 117.125 C-41.22070312 117.29257813 -42.31640625 117.46015625 -43.4453125 117.6328125 C-44.28835938 117.75398438 -45.13140625 117.87515625 -46 118 C-46.34144043 117.34217529 -46.68288086 116.68435059 -47.03466797 116.0065918 C-48.64756413 112.89994306 -50.26121577 109.79368752 -51.875 106.6875 C-52.46200684 105.55715332 -53.04901367 104.42680664 -53.65380859 103.26220703 C-56.414518 97.95130636 -59.18128996 92.64414654 -61.984375 87.35546875 C-62.43312988 86.50831299 -62.88188477 85.66115723 -63.34423828 84.78833008 C-64.17353653 83.22568936 -65.00509758 81.66424656 -65.83935547 80.10424805 C-68.11766733 75.81028072 -70.1477182 71.49502781 -72 67 C-74.37779491 67.95111796 -75.76390627 68.67866504 -77.29492188 70.76245117 C-78.26993906 73.04226861 -78.26993906 73.04226861 -77.07226562 75.3840332 C-76.52248047 76.26406006 -75.97269531 77.14408691 -75.40625 78.05078125 C-74.48827637 79.54834961 -74.48827637 79.54834961 -73.55175781 81.07617188 C-72.87467773 82.14416016 -72.19759766 83.21214844 -71.5 84.3125 C-70.46341656 85.98656506 -69.42684808 87.66063975 -68.39141846 89.3354187 C-67.31710383 91.0685612 -66.23583697 92.79723842 -65.15429688 94.52587891 C-63.05132638 97.90021216 -61.01264543 101.31065202 -58.984375 104.73046875 C-58.35595703 105.78516357 -57.72753906 106.8398584 -57.08007812 107.92651367 C-55.8760647 109.94856876 -54.67670951 111.97340608 -53.48242188 114.0012207 C-52.93650391 114.90831787 -52.39058594 115.81541504 -51.828125 116.75 C-51.3527832 117.54921875 -50.87744141 118.3484375 -50.38769531 119.171875 C-49.04423363 121.29883474 -49.04423363 121.29883474 -46 122 C-45.93425781 122.68449219 -45.86851562 123.36898437 -45.80078125 124.07421875 C-44.74134121 127.94505091 -42.61398324 130.69868675 -40.1875 133.8125 C-39.74857422 134.40998047 -39.30964844 135.00746094 -38.85742188 135.62304688 C-37.41637826 137.55884469 -37.41637826 137.55884469 -35 140 C-33.68 140 -32.36 140 -31 140 C-30.72849121 139.49662109 -30.45698242 138.99324219 -30.17724609 138.47460938 C-28.91641749 136.14610492 -27.64577984 133.82308749 -26.375 131.5 C-25.94832031 130.70851563 -25.52164063 129.91703125 -25.08203125 129.1015625 C-22.4579747 124.32342968 -19.62496345 119.97059971 -16.22119141 115.70898438 C-14.80428346 113.90329479 -14.80428346 113.90329479 -14 111 C-16.64 110.67 -19.28 110.34 -22 110 C-22.15855469 108.68515625 -22.31710937 107.3703125 -22.48046875 106.015625 C-24.76470966 87.31266939 -27.37491894 68.6575494 -30 50 C-33.96604097 49.94083667 -37.38230995 50.38368281 -41.25 51.3125 Z M41 60 C30.65523106 82.2862449 30.65523106 82.2862449 21 104.875 C20.66871094 105.67454102 20.33742188 106.47408203 19.99609375 107.29785156 C18.20209776 111.5609811 18.20209776 111.5609811 19 116 C20.95363107 115.78363233 20.95363107 115.78363233 23 115 C24.15473997 113.37734231 24.15473997 113.37734231 24.859375 111.28149414 C25.16649414 110.49299576 25.47361328 109.70449738 25.79003906 108.8921051 C26.10682617 108.03181198 26.42361328 107.17151886 26.75 106.28515625 C27.08999023 105.40025009 27.42998047 104.51534393 27.78027344 103.60362244 C28.86833149 100.76197312 29.93446507 97.91266167 31 95.0625 C31.71729491 93.17587842 32.43602879 91.28980327 33.15625 89.40429688 C34.80069145 85.09554223 36.42846658 80.78078176 38.04882812 76.46292114 C39.37796149 73.02132374 40.81134679 69.62394997 42.25683594 66.22972107 C43.21079903 63.75925602 43.21079903 63.75925602 43 60 C42.34 60 41.68 60 41 60 Z M45 62 C41.51127263 68.61942304 38.68698192 75.44303874 35.94360352 82.40161133 C35.18074875 84.32956232 34.40400762 86.25156365 33.62695312 88.17382812 C33.14548828 89.39134766 32.66402344 90.60886719 32.16796875 91.86328125 C31.72735107 92.96969971 31.2867334 94.07611816 30.83276367 95.21606445 C29.69580642 98.04548872 29.69580642 98.04548872 31 101 C31.3623877 100.33057373 31.72477539 99.66114746 32.09814453 98.97143555 C33.77358543 95.87669418 35.44929149 92.78209647 37.125 89.6875 C37.69476563 88.63498047 38.26453125 87.58246094 38.8515625 86.49804688 C39.41875 85.45068359 39.9859375 84.40332031 40.5703125 83.32421875 C41.13524414 82.27540527 41.70017578 81.2265918 42.28222656 80.14599609 C43.43350634 78.03749819 44.60770747 75.94136504 45.80371094 73.85791016 C46.3609082 72.87999512 46.91810547 71.90208008 47.4921875 70.89453125 C47.99862793 70.0228833 48.50506836 69.15123535 49.02685547 68.25317383 C50.33832853 65.90421877 50.33832853 65.90421877 49 63 C46.98491642 62.26676204 46.98491642 62.26676204 45 62 Z M-82.625 74.5 C-83.07875 74.995 -83.5325 75.49 -84 76 C-83.71125 76.5775 -83.4225 77.155 -83.125 77.75 C-82.08333333 79.83333333 -81.04166667 81.91666667 -80 84 C-82.475 81.03 -82.475 81.03 -85 78 C-85.66 78.33 -86.32 78.66 -87 79 C-79.07491269 90.54803797 -70.95019969 101.88684676 -62.33203125 112.93041992 C-53 124.97368904 -53 124.97368904 -53 129.3125 C-54.32259299 131.54437568 -55.66073786 131.89534843 -58 133 C-59.70496537 134.62746694 -61.37897032 136.28891311 -63 138 C-63.68449219 137.30648437 -64.36898437 136.61296875 -65.07421875 135.8984375 C-68.24649784 132.72727423 -71.52213941 129.67281911 -74.8125 126.625 C-75.43415039 126.0484668 -76.05580078 125.47193359 -76.69628906 124.87792969 C-80.43584989 121.41956821 -84.20877181 118.01028496 -88.06640625 114.68359375 C-91.29048686 111.87636397 -94.44305362 108.98959743 -97.60546875 106.11328125 C-99.2501904 104.66174061 -100.94449472 103.26508659 -102.67578125 101.91796875 C-105 100 -105 100 -107 97 C-109.99392393 97.3371536 -110.98831742 97.98810424 -113.140625 100.1796875 C-114.18476563 101.51386719 -114.18476563 101.51386719 -115.25 102.875 C-115.95640625 103.75929688 -116.6628125 104.64359375 -117.390625 105.5546875 C-119.27488177 107.92976101 -119.27488177 107.92976101 -119 111 C-116.7517158 112.86000113 -114.53356535 114.49257048 -112.125 116.125 C-111.02236816 116.88768188 -111.02236816 116.88768188 -109.89746094 117.66577148 C-91.92427725 130.13814314 -91.92427725 130.13814314 -73.27636719 141.53686523 C-71 143 -71 143 -69 146 C-69.375 148.1875 -69.375 148.1875 -70 150 C-70.66 150 -71.32 150 -72 150 C-77.0927299 161.21951664 -79.67980923 172.66272144 -79 185 C-75.87322796 186.56338602 -72.55548595 186.19046274 -69.125 186.1875 C-68.36646729 186.18814453 -67.60793457 186.18878906 -66.82641602 186.18945312 C-60.41429294 186.12993759 -54.27288491 185.35368615 -48 184 C-48.10441406 183.12601563 -48.10441406 183.12601563 -48.2109375 182.234375 C-48.67650975 175.18428094 -46.77168559 170.80270409 -43.21484375 164.76171875 C-41.82987318 161.61324867 -41.97244896 160.2235744 -43 157 C-42.4225 156.979375 -41.845 156.95875 -41.25 156.9375 C-38.27543441 155.69809767 -37.24671526 153.68964794 -35.63671875 150.984375 C-34.54403714 147.57896239 -35.41317694 145.19508801 -36.9621582 142.04052734 C-38.19713656 139.76641275 -39.49279205 137.53844517 -40.8125 135.3125 C-41.25142578 134.54099609 -41.69035156 133.76949219 -42.14257812 132.97460938 C-42.57634766 132.23662109 -43.01011719 131.49863281 -43.45703125 130.73828125 C-43.84866455 130.06837158 -44.24029785 129.39846191 -44.64379883 128.70825195 C-46.22214967 126.7201834 -47.73071043 126.0673792 -50 125 C-50.3760851 123.67808893 -50.70391371 122.34209605 -51 121 C-52.76573945 118.60837638 -54.67230472 116.38206186 -56.6015625 114.12109375 C-57.06304687 113.42113281 -57.52453125 112.72117188 -58 112 C-57.67 111.01 -57.34 110.02 -57 109 C-58.27138475 106.18159477 -58.27138475 106.18159477 -60.19140625 103.1171875 C-60.53372787 102.54348419 -60.8760495 101.96978088 -61.22874451 101.37869263 C-62.33051738 99.53824017 -63.44648967 97.70684608 -64.5625 95.875 C-65.28799831 94.66459487 -66.01261752 93.45366236 -66.73632812 92.2421875 C-72.42087732 82.30705989 -72.42087732 82.30705989 -79 73 C-81.12364481 72.77390663 -81.12364481 72.77390663 -82.625 74.5 Z M-10 110 C-10 110.99 -10 111.98 -10 113 C-8.02 113.99 -6.04 114.98 -4 116 C-3.34 128.87 -2.68 141.74 -2 155 C-1.34 155 -0.68 155 0 155 C0.46374023 154.18845459 0.92748047 153.37690918 1.40527344 152.54077148 C16 127 16 127 17.13195801 125.12454224 C19.43574678 121.33369191 19.43574678 121.33369191 20 117 C9.81011818 112.6985335 1.05885197 110.70039396 -10 110 Z M17 126 C18 128 18 128 18 128 Z M16 128 C15.63237549 128.65484375 15.26475098 129.3096875 14.88598633 129.984375 C13.19679026 132.99069284 11.5046672 135.9953536 9.8125 139 C8.9452832 140.54494141 8.9452832 140.54494141 8.06054688 142.12109375 C7.49013672 143.13300781 6.91972656 144.14492187 6.33203125 145.1875 C5.77104736 146.18458984 5.21006348 147.18167969 4.63208008 148.20898438 C3.19609061 150.664666 1.66426948 152.99527618 0.0625 155.34375 C-2.17805251 158.87238048 -2.43334566 161.29735247 -1.8125 165.5 C-1.67457031 166.5415625 -1.53664063 167.583125 -1.39453125 168.65625 C-1.26433594 169.4296875 -1.13414062 170.203125 -1 171 C-0.34 171 0.32 171 1 171 C1.27150879 170.32122803 1.54301758 169.64245605 1.82275391 168.94311523 C2.63257678 166.91855805 3.44256874 164.89406849 4.25268555 162.86962891 C5.16944719 160.57682778 6.08496973 158.28353082 6.99926758 155.98974609 C8.98321764 151.01627741 10.96870771 146.04532505 13.03515625 141.10546875 C13.31987793 140.418479 13.60459961 139.73148926 13.89794922 139.02368164 C14.63767093 137.24482705 15.38685753 135.46991668 16.13671875 133.6953125 C17.30992688 130.94556266 17.30992688 130.94556266 16 128 Z M-134 136 C-135.32 140.95 -136.64 145.9 -138 151 C-133.55436608 153.22281696 -130.25794808 154.63737919 -125.58984375 155.8671875 C-124.36177002 156.19332031 -123.13369629 156.51945312 -121.8684082 156.85546875 C-120.55820627 157.19570089 -119.24790147 157.53553717 -117.9375 157.875 C-116.5939288 158.2276157 -115.2504234 158.58048223 -113.90698242 158.93359375 C-105.89423751 161.03068428 -97.86560889 163.0633315 -89.8125 165 C-88.95325928 165.20737793 -88.09401855 165.41475586 -87.20874023 165.62841797 C-84.07707093 166.3650921 -81.22884496 167 -78 167 C-77.34 164.03 -76.68 161.06 -76 158 C-77.31871094 157.55914062 -77.31871094 157.55914062 -78.6640625 157.109375 C-88.75083555 153.67067224 -98.6664957 149.82281808 -108.5625 145.875 C-109.21575256 145.61569702 -109.86900513 145.35639404 -110.54205322 145.0892334 C-122.50916604 140.33240455 -122.50916604 140.33240455 -127.71484375 137.6328125 C-130.83631815 135.77745863 -130.83631815 135.77745863 -134 136 Z M-36 141 C-35 143 -35 143 -35 143 Z M138.33203125 161.65625 C137.43935547 161.79160156 136.54667969 161.92695313 135.62695312 162.06640625 C134.69818359 162.20949219 133.76941406 162.35257813 132.8125 162.5 C131.87212891 162.64308594 130.93175781 162.78617188 129.96289062 162.93359375 C127.64161806 163.28708703 125.32067856 163.64263134 123 164 C123.24556641 164.91072266 123.24556641 164.91072266 123.49609375 165.83984375 C124.06887612 168.29525964 124.06449096 170.48485266 124 173 C124 176.38023517 124.87455622 178.83468937 126 182 C129.16490209 182.59416184 131.85471009 182.77072148 135 182 C137.76105135 179.27770824 139.33779397 176.06946313 141.0625 172.625 C141.78856445 171.29082031 141.78856445 171.29082031 142.52929688 169.9296875 C145.04624066 165.68726223 145.04624066 165.68726223 146 161 C143.32618014 161 140.96661006 161.25351184 138.33203125 161.65625 Z M108.9453125 164.70703125 C107.77740677 164.83521492 107.77740677 164.83521492 106.58590698 164.96598816 C104.09808367 165.24103131 101.61161832 165.52679007 99.125 165.8125 C97.49226084 165.99350135 95.85944872 166.17384583 94.2265625 166.35351562 C89.48162708 166.87981024 84.74059335 167.43611463 80 168 C79.26245483 168.08570251 78.52490967 168.17140503 77.76501465 168.25970459 C75.69382499 168.50226425 73.62418782 168.75519098 71.5546875 169.01171875 C69.79487549 169.22574341 69.79487549 169.22574341 67.99951172 169.4440918 C65.27591483 169.9488639 63.36760681 170.60320648 61 172 C61 172.66 61 173.32 61 174 C68.05832642 174.17113868 74.76161977 173.52431967 81.74609375 172.5390625 C82.83841812 172.38843353 83.93074249 172.23780457 85.0561676 172.08261108 C87.3483442 171.76456401 89.64008436 171.44335701 91.93139648 171.11914062 C95.44959864 170.62329485 98.96971758 170.14316435 102.49023438 169.6640625 C104.72148629 169.35250728 106.95261106 169.04003979 109.18359375 168.7265625 C110.23872665 168.58376862 111.29385956 168.44097473 112.38096619 168.29385376 C113.83872215 168.08386246 113.83872215 168.08386246 115.32592773 167.86962891 C116.1825853 167.74971588 117.03924286 167.62980286 117.92185974 167.5062561 C120.2059362 167.14049782 120.2059362 167.14049782 122 165 C117.53785477 163.78379534 113.47099188 164.17620196 108.9453125 164.70703125 Z M112.25732422 168.40551758 C111.34643036 168.51926224 110.4355365 168.6330069 109.49703979 168.75019836 C108.52606354 168.88032822 107.55508728 169.01045807 106.5546875 169.14453125 C105.54785919 169.27437912 104.54103088 169.40422699 103.50369263 169.53800964 C101.38003201 169.81407667 99.25689843 170.09422459 97.13427734 170.37817383 C93.88132772 170.81165678 90.62649703 171.22797256 87.37109375 171.64257812 C85.30715677 171.91303505 83.24334969 172.18448555 81.1796875 172.45703125 C80.20466278 172.58108841 79.22963806 172.70514557 78.22506714 172.83296204 C77.3204776 172.95616318 76.41588806 173.07936432 75.48388672 173.20629883 C74.68844452 173.31146317 73.89300232 173.4166275 73.07345581 173.52497864 C70.70923562 173.93753609 70.70923562 173.93753609 68 176 C73.92255717 175.88080533 79.84497833 175.75650528 85.76733398 175.62768555 C87.77772183 175.58465071 89.78813888 175.54295691 91.79858398 175.50268555 C94.70565558 175.44421204 97.61258432 175.38074938 100.51953125 175.31640625 C101.84522881 175.29133751 101.84522881 175.29133751 103.19770813 175.26576233 C109.49780066 175.11966029 115.73131109 174.63870227 122 174 C122 172.35 122 170.7 122 169 C118.5524469 168.17808657 115.76748005 167.95288253 112.25732422 168.40551758 Z M110.5 175.18359375 C109.38332695 175.21278648 109.38332695 175.21278648 108.24409485 175.24256897 C89.27296631 175.72253306 89.27296631 175.72253306 70.3125 176.5 C69.17651367 176.55305298 69.17651367 176.55305298 68.01757812 176.60717773 C64.72167252 176.53027628 64.72167252 176.53027628 62 178 C61.95936168 179.66617115 61.957279 181.33388095 62 183 C62.66 183 63.32 183 64 183 C64 182.34 64 181.68 64 181 C65.10698242 181.03029297 66.21396484 181.06058594 67.35449219 181.09179688 C71.5666616 181.20633378 75.77892038 181.31726266 79.99121094 181.42724609 C81.79462149 181.47480506 83.59800844 181.52326948 85.40136719 181.57275391 C98.27092946 181.92504919 111.12570944 182.0623788 124 182 C123.42547254 178.06924356 123.42547254 178.06924356 121 175 C117.49792065 175 114.00056121 175.09164381 110.5 175.18359375 Z M36.5 179 C35.200625 179.19078125 33.90125 179.3815625 32.5625 179.578125 C29.3742109 180.04699104 26.1867931 180.52108945 23 181 C23 181.33 23 181.66 23 182 C35.54 182.66 48.08 183.32 61 184 C61 182.02 61 180.04 61 178 C54.21863677 174.60931838 43.58770362 177.93396328 36.5 179 Z M15.5 178.5 C14.40945313 178.57154297 14.40945313 178.57154297 13.296875 178.64453125 C11.53109584 178.76070093 9.76552387 178.88001294 8 179 C8 179.33 8 179.66 8 180 C16.35268278 181.2386744 23.72913843 180.59105604 32 179 C32 178.67 32 178.34 32 178 C26.47239161 177.95020173 21.01374676 178.12220624 15.5 178.5 Z M-81 180 C-81 180.99 -81 181.98 -81 183 C-82.00039307 182.96970703 -83.00078613 182.93941406 -84.03149414 182.90820312 C-103.02499795 182.33846681 -121.99585644 181.82090336 -141 182 C-140.34 183.98 -139.68 185.96 -139 188 C-131.45491816 187.89264243 -123.90993031 187.78003875 -116.36502934 187.66066074 C-112.86195645 187.60540045 -109.35887527 187.55197566 -105.85571289 187.50268555 C-101.83209856 187.44599332 -97.80864469 187.38142599 -93.78515625 187.31640625 C-92.52163834 187.29969376 -91.25812042 187.28298126 -89.95631409 187.26576233 C-88.795186 187.24581711 -87.63405792 187.22587189 -86.43774414 187.20532227 C-85.40960098 187.18977798 -84.38145782 187.1742337 -83.32215881 187.15821838 C-81.03914647 187.25828129 -81.03914647 187.25828129 -80 186 C-79.95919217 184.00041636 -79.95745644 181.99954746 -80 180 C-80.33 180 -80.66 180 -81 180 Z M6 183 C5.34 185.64 4.68 188.28 4 191 C6.97922593 191.02683987 9.95821295 191.04676037 12.9375 191.0625 C13.78763672 191.07087891 14.63777344 191.07925781 15.51367188 191.08789062 C16.32255859 191.09111328 17.13144531 191.09433594 17.96484375 191.09765625 C18.7137085 191.10289307 19.46257324 191.10812988 20.23413086 191.11352539 C22.02667739 191.19341752 22.02667739 191.19341752 23 190 C23.04080783 188.00041636 23.04254356 185.99954746 23 184 C17.00648057 181.2601054 12.41325328 181.99399949 6 183 Z M28 184 C27.46522379 187.39378931 26.94966242 190.79023051 26.4375 194.1875 C26.28603516 195.14720703 26.13457031 196.10691406 25.97851562 197.09570312 C25.83994141 198.02705078 25.70136719 198.95839844 25.55859375 199.91796875 C25.42767334 200.77156982 25.29675293 201.6251709 25.16186523 202.50463867 C24.98754875 205.19195204 25.36123018 207.39390077 26 210 C32.89115279 210.11657965 39.64381823 209.81267093 46.5 209.125 C47.39203125 209.04636719 48.2840625 208.96773437 49.203125 208.88671875 C50.05390625 208.80292969 50.9046875 208.71914062 51.78125 208.6328125 C52.54501953 208.55949707 53.30878906 208.48618164 54.09570312 208.41064453 C56.23122992 208.13021221 56.23122992 208.13021221 58 206 C58.66 206.33 59.32 206.66 60 207 C68.97777704 207.45558869 79.39471121 207.8684296 88 205 C87.3455444 202.99153083 87.3455444 202.99153083 86 201 C83.76307075 200.00824821 83.76307075 200.00824821 81.09765625 199.55078125 C80.12505859 199.34259766 79.15246094 199.13441406 78.15039062 198.91992188 C77.13138672 198.71947266 76.11238281 198.51902344 75.0625 198.3125 C73.05320686 197.89278099 71.04408436 197.472244 69.03515625 197.05078125 C68.1419165 196.87200439 67.24867676 196.69322754 66.32836914 196.5090332 C64 196 64 196 61 195 C61 191.7 61 188.4 61 185 C49.9760632 183.99291931 39.05994427 183.89388113 28 184 Z M-77 189 C-76.58955515 195.57791873 -76.13391403 201.74051886 -74 208 C-74.55333008 208.13462646 -75.10666016 208.26925293 -75.67675781 208.40795898 C-85.88874156 211.03792967 -95.79236633 214.61683433 -105.75 218.0625 C-108.52810777 219.02177535 -111.30656525 219.98000389 -114.08575439 220.93614197 C-115.80383692 221.52741456 -117.52128511 222.12053482 -119.23797607 222.71583557 C-123.79393678 224.28586769 -128.35323251 225.72256617 -133 227 C-132.34580901 232.06998019 -130.1453591 236.41990777 -128 241 C-124.04720179 240.37055053 -120.81339098 239.14276179 -117.1953125 237.4453125 C-116.06448242 236.91768311 -114.93365234 236.39005371 -113.76855469 235.84643555 C-112.55395295 235.27280049 -111.33943646 234.69898488 -110.125 234.125 C-108.87941077 233.54104058 -107.63364059 232.95746696 -106.38769531 232.37426758 C-94.8927284 226.98468297 -83.43657756 221.51226959 -72 216 C-72 215.01 -72 214.02 -72 213 C-71.59007812 213.83144531 -71.18015625 214.66289062 -70.7578125 215.51953125 C-70.21898437 216.60621094 -69.68015625 217.69289062 -69.125 218.8125 C-68.59132813 219.89144531 -68.05765625 220.97039062 -67.5078125 222.08203125 C-66.02778861 225.07838265 -66.02778861 225.07838265 -64 228 C-63.34 228 -62.68 228 -62 228 C-59.89582048 230.00142765 -57.94872032 232.12249925 -55.97265625 234.25 C-54.06547189 236.33181398 -54.06547189 236.33181398 -51 236 C-50.67 236.99 -50.34 237.98 -50 239 C-49.34 239.66 -48.68 240.32 -48 241 C-46.65705519 242.65893182 -45.32255312 244.32476605 -44 246 C-48.77864726 253.99980949 -53.58252027 261.98374371 -58.4375 269.9375 C-58.8927002 270.68370605 -59.34790039 271.42991211 -59.81689453 272.19873047 C-62.1582765 276.02625908 -64.52154957 279.83803085 -66.921875 283.62890625 C-67.3866626 284.36439697 -67.8514502 285.0998877 -68.33032227 285.85766602 C-69.21736268 287.25787821 -70.10831774 288.65562014 -71.00366211 290.05053711 C-73.24709722 293.27143287 -73.24709722 293.27143287 -74 297 C-71.03 297.495 -71.03 297.495 -68 298 C-67.01 296.515 -67.01 296.515 -66 295 C-66.33 296.65 -66.66 298.3 -67 300 C-65.35 300.33 -63.7 300.66 -62 301 C-57.77247797 293.40967635 -54.56489766 285.57606644 -51.5625 277.4375 C-51.19640625 276.46151855 -50.8303125 275.48553711 -50.453125 274.47998047 C-50.11925781 273.55717285 -49.78539062 272.63436523 -49.44140625 271.68359375 C-49.13920166 270.85400146 -48.83699707 270.02440918 -48.52563477 269.16967773 C-47.75824544 266.84075116 -47.75824544 266.84075116 -49 264 C-48.28735352 262.14648438 -48.28735352 262.14648438 -47.12890625 260.09375 C-46.71962891 259.34996094 -46.31035156 258.60617187 -45.88867188 257.83984375 C-45.45103516 257.06769531 -45.01339844 256.29554688 -44.5625 255.5 C-43.70404651 253.97187626 -42.85093255 252.44073721 -42.00390625 250.90625 C-41.62049072 250.22884766 -41.2370752 249.55144531 -40.84204102 248.85351562 C-39.7931934 246.88407658 -39.7931934 246.88407658 -40 244 C-39.0636559 242.12731181 -38.12302544 240.25661382 -37.15820312 238.3984375 C-34.99085215 233.91023009 -33.41289094 229.19304777 -31.75 224.5 C-31.38648438 223.48679688 -31.02296875 222.47359375 -30.6484375 221.4296875 C-29.76116998 218.9546781 -28.87847418 216.47814113 -28 214 C-30.12232979 212.82823482 -32.24757791 211.66245215 -34.375 210.5 C-34.97828125 210.16613281 -35.5815625 209.83226562 -36.203125 209.48828125 C-39.41414777 207.61226062 -39.41414777 207.61226062 -43 207 C-42.67 205.68 -42.34 204.36 -42 203 C-41.030625 203.474375 -40.06125 203.94875 -39.0625 204.4375 C-34.80163851 206.28852999 -30.59984394 206.69751593 -26 207 C-27.00564784 204.35531286 -27.63272495 203.20680204 -30.13671875 201.796875 C-30.97847656 201.45140625 -31.82023437 201.1059375 -32.6875 200.75 C-39.31477586 197.661747 -43.01386227 192.9792066 -47 187 C-49.8760021 186.71845453 -52.50267623 186.62453857 -55.375 186.6875 C-56.58325439 186.70006836 -56.58325439 186.70006836 -57.81591797 186.71289062 C-64.33335898 186.84279776 -70.62720189 187.60048355 -77 189 Z M-118.75 188.5 C-120.71874672 188.54831081 -122.68749671 188.59648896 -124.65625 188.64453125 C-129.43753896 188.76149148 -134.21878022 188.88024656 -139 189 C-139 190.98 -139 192.96 -139 195 C-126.6956768 194.47769808 -114.62636346 193.16741573 -102.4375 191.4375 C-100.73250617 191.20056448 -99.02742821 190.96423359 -97.32226562 190.72851562 C-93.21384562 190.15927164 -89.10663305 189.58198946 -85 189 C-85 188.67 -85 188.34 -85 188 C-96.25492658 187.89365424 -107.49966447 188.21779461 -118.75 188.5 Z M-86.42041016 189.53491211 C-87.31208893 189.65180893 -88.2037677 189.76870575 -89.12246704 189.8891449 C-90.08494354 190.01725052 -91.04742004 190.14535614 -92.0390625 190.27734375 C-93.53220474 190.47355064 -93.53220474 190.47355064 -95.05551147 190.67372131 C-98.24558363 191.09316222 -101.43530883 191.51517239 -104.625 191.9375 C-107.79331238 192.3559063 -110.9616974 192.77374425 -114.13021851 193.19056702 C-116.10156258 193.45001075 -118.07278194 193.71040448 -120.04385376 193.97190857 C-125.68977673 194.71624576 -131.33794544 195.38996768 -137 196 C-137 196.33 -137 196.66 -137 197 C-127.05849176 197.39810267 -117.34946802 196.16220213 -107.5 195 C-87.37032495 192.62477008 -87.37032495 192.62477008 -78 193 C-78.495 191.02 -78.495 191.02 -79 189 C-81.56747924 189 -83.88365296 189.19951829 -86.42041016 189.53491211 Z M3 193 C5.22453834 198.75762866 7.6689823 200.38478377 13 203 C12.814375 203.94875 12.62875 204.8975 12.4375 205.875 C11.71313368 208.89868793 11.71313368 208.89868793 13 211 C15.31 211 17.62 211 20 211 C20.33910994 208.95928485 20.67102704 206.91737379 21 204.875 C21.185625 203.73804688 21.37125 202.60109375 21.5625 201.4296875 C21.96956049 198.23862398 22.07809902 195.21182209 22 192 C15.56744599 191.87913782 9.38226945 192.17648136 3 193 Z M0 194 C0.33 194.66 0.66 195.32 1 196 C1.66 195.67 2.32 195.34 3 195 C2.01 194.67 1.02 194.34 0 194 Z M-11 201 C-10.34 202.65 -9.68 204.3 -9 206 C-8.34 206 -7.68 206 -7 206 C-7.33 204.35 -7.66 202.7 -8 201 C-8.99 201 -9.98 201 -11 201 Z M-21 202 C-21.33 203.32 -21.66 204.64 -22 206 C-21.01 206.495 -21.01 206.495 -20 207 C-19.67 205.35 -19.34 203.7 -19 202 C-19.66 202 -20.32 202 -21 202 Z M-5.75 205 C-6.36359375 205.556875 -6.9771875 206.11375 -7.609375 206.6875 C-8.06828125 207.120625 -8.5271875 207.55375 -9 208 C-8.01 209.65 -7.02 211.3 -6 213 C-1.38 212.67 3.24 212.34 8 212 C6.19389527 208.38779054 4.46681184 205.19234474 2 202 C-2.36795404 202 -2.74658993 202.22762148 -5.75 205 Z M91 203 C91 203.66 91 204.32 91 205 C92.98 205 94.96 205 97 205 C94.18490007 202.7226499 94.18490007 202.7226499 91 203 Z M5 204 C6.32 206.31 7.64 208.62 9 211 C9.99 210.67 10.98 210.34 12 210 C10.21168225 206.94236782 10.21168225 206.94236782 8 204 C7.01 204 6.02 204 5 204 Z M91 210 C91 212.31 91 214.62 91 217 C99.09535472 221.30482392 107.46602584 224.68881803 116 228 C118.86964374 221.74827614 120.51137226 216.90352555 120 210 C116.09461576 208.69820525 112.38082789 208.8552668 108.3125 208.875 C107.14557617 208.86919922 107.14557617 208.86919922 105.95507812 208.86328125 C100.88478324 208.87173879 96.018732 209.27730259 91 210 Z M80.875 210.5 C78.956875 210.7475 78.956875 210.7475 77 211 C80.42346555 214.14958831 83.44262737 214.56179109 88 215 C87.67 213.35 87.34 211.7 87 210 C84.91103575 210 82.94627065 210.23273927 80.875 210.5 Z M31.5625 213.875 C30.48806641 213.95363281 29.41363281 214.03226563 28.30664062 214.11328125 C26.76459961 214.23896484 26.76459961 214.23896484 25.19140625 214.3671875 C24.26529541 214.44050293 23.33918457 214.51381836 22.38500977 214.58935547 C19.74339669 214.87822669 19.74339669 214.87822669 17 217 C18.92313132 220.32104332 20.86584146 223.63020124 22.8125 226.9375 C23.35970703 227.88302734 23.90691406 228.82855469 24.47070312 229.80273438 C25.26831055 231.15141602 25.26831055 231.15141602 26.08203125 232.52734375 C26.81256714 233.77632446 26.81256714 233.77632446 27.55786133 235.05053711 C28.93003332 237.29590631 28.93003332 237.29590631 32 238 C34.64957511 236.13555048 34.64957511 236.13555048 37.375 233.625 C43.88365335 227.83355363 43.88365335 227.83355363 48 228 C50.20249761 229.60402584 51.92144138 231.08453275 53.8125 233 C54.87826137 234.02931396 55.94466766 235.0579606 57.01171875 236.0859375 C57.52524902 236.58963867 58.0387793 237.09333984 58.56787109 237.61230469 C60.36328949 239.35201797 62.22926137 240.99566863 64.125 242.625 C67.11397458 245.21709829 70.06321535 247.84886006 73 250.5 C73.8353125 251.25152344 74.670625 252.00304687 75.53125 252.77734375 C77.1385348 254.2244087 78.74286268 255.67476693 80.34375 257.12890625 C81.41109375 258.08603516 81.41109375 258.08603516 82.5 259.0625 C83.44359375 259.91521484 83.44359375 259.91521484 84.40625 260.78515625 C85.93110463 262.20207313 85.93110463 262.20207313 88 262 C89.14566707 255.65528236 90.15564466 249.22217203 88 243 C83.67565617 237.7041632 77.34298675 234.55764122 71.41992188 231.33984375 C68.1312072 229.51897348 65.09418386 227.4464199 62 225.3125 C60.33398737 224.20734674 58.66746595 223.10295925 57 222 C56.01 221.34 55.02 220.68 54 220 C52.68 220.33 51.36 220.66 50 221 C51.32 218.36 52.64 215.72 54 213 C46.46975139 212.90247597 39.06617953 213.25623504 31.5625 213.875 Z M-29 219 C-30.03251062 221.43313372 -31.05119521 223.87056892 -32.0625 226.3125 C-32.35705078 227.00279297 -32.65160156 227.69308594 -32.95507812 228.40429688 C-34.78879503 232.60525535 -34.78879503 232.60525535 -34 237 C-31.03 231.72 -28.06 226.44 -25 221 C-26.32 220.34 -27.64 219.68 -29 219 Z M-20 219 C-21.0231111 222.49281886 -21.28801546 225.89089345 -21.53515625 229.515625 C-21.62216797 230.76601562 -21.70917969 232.01640625 -21.79882812 233.3046875 C-21.88583984 234.60664063 -21.97285156 235.90859375 -22.0625 237.25 C-22.15396895 238.58075175 -22.24576229 239.91148124 -22.33789062 241.2421875 C-22.56178768 244.49458677 -22.7823637 247.74717678 -23 251 C-22.01 251 -21.02 251 -20 251 C-18.94271913 244.14016191 -18.88360157 237.43216776 -18.9375 230.5 C-18.94201172 229.39140625 -18.94652344 228.2828125 -18.95117188 227.140625 C-18.96286842 224.42702601 -18.97925914 221.71354239 -19 219 C-19.33 219 -19.66 219 -20 219 Z M-24 221 C-25.98711598 224.41210201 -27.96328601 227.83041936 -29.9375 231.25 C-30.78344727 232.70212891 -30.78344727 232.70212891 -31.64648438 234.18359375 C-32.18466797 235.11816406 -32.72285156 236.05273438 -33.27734375 237.015625 C-33.77484131 237.87446289 -34.27233887 238.73330078 -34.78491211 239.61816406 C-35.90286308 241.80959057 -36.72399401 243.55640941 -37 246 C-34.53698577 248.46301423 -32.72639964 248.76766521 -29.375 249.625 C-27.87066406 250.01558594 -27.87066406 250.01558594 -26.3359375 250.4140625 C-25.17964844 250.70410156 -25.17964844 250.70410156 -24 251 C-23.65802981 247.87588408 -23.32807747 244.75060292 -23 241.625 C-22.85691406 240.31982422 -22.85691406 240.31982422 -22.7109375 238.98828125 C-22.08678885 232.96970497 -21.88276094 227.04920988 -22 221 C-22.66 221 -23.32 221 -24 221 Z M-10 221 C-10.0294191 224.47914843 -10.04693792 227.95826417 -10.0625 231.4375 C-10.07087891 232.41138672 -10.07925781 233.38527344 -10.08789062 234.38867188 C-10.10782078 240.34778969 -9.77609518 246.09067683 -9 252 C-8.01 252 -7.02 252 -6 252 C-6.23677798 248.06651632 -6.4852873 244.13396656 -6.74462891 240.2019043 C-6.87372111 238.20726057 -6.99354798 236.21202426 -7.11328125 234.21679688 C-7.19707031 232.96318359 -7.28085937 231.70957031 -7.3671875 230.41796875 C-7.44050293 229.26063232 -7.51381836 228.1032959 -7.58935547 226.91088867 C-7.81216609 223.81263117 -7.81216609 223.81263117 -10 221 Z M-63 229 C-63 229.66 -63 230.32 -63 231 C-63.58918213 231.27457031 -64.17836426 231.54914063 -64.78540039 231.83203125 C-66.91497681 232.95515919 -68.58611606 234.15340791 -70.43359375 235.6875 C-71.39676514 236.48051514 -71.39676514 236.48051514 -72.37939453 237.28955078 C-73.05856934 237.85399902 -73.73774414 238.41844727 -74.4375 239 C-80.45731269 243.94889525 -86.54210948 248.7731839 -92.73828125 253.5 C-98.54369004 257.93341691 -104.26442218 262.47689065 -110 267 C-108.59155282 270.21524305 -106.89655214 272.32183868 -104.375 274.75 C-103.74335938 275.36359375 -103.11171875 275.9771875 -102.4609375 276.609375 C-101.97882813 277.06828125 -101.49671875 277.5271875 -101 278 C-97.64000982 276.54131246 -95.44796894 274.69131052 -92.87402344 272.10107422 C-92.07349548 271.3003952 -91.27296753 270.49971619 -90.44818115 269.67477417 C-89.59387512 268.81014557 -88.73956909 267.94551697 -87.859375 267.0546875 C-86.97719299 266.1696756 -86.09501099 265.2846637 -85.18609619 264.37283325 C-82.84805457 262.02549869 -80.51444126 259.67393215 -78.18286133 257.32019043 C-75.80003474 254.91686073 -73.41149652 252.51922233 -71.0234375 250.12109375 C-66.34368138 245.41928533 -61.66968133 240.71181336 -57 236 C-58.52572656 232.67364118 -59.93344504 231.04436998 -63 229 Z M-36 237 C-35 239 -35 239 -35 239 Z M-37 239 C-36 241 -36 241 -36 241 Z M-39 247 C-42.61252368 254.66557587 -45.76626368 262.4224691 -48.6875 270.375 C-49.46181912 272.46630156 -50.23654388 274.55745298 -51.01171875 276.6484375 C-51.34647217 277.55770996 -51.68122559 278.46698242 -52.02612305 279.40380859 C-52.69003457 281.17368453 -53.41342357 282.92210211 -54.18676758 284.64697266 C-55.30337415 287.10449533 -55.30337415 287.10449533 -54 290 C-52.23545034 286.1101019 -50.47587958 282.21799794 -48.72045898 278.32397461 C-48.12539562 277.00568286 -47.52908607 275.68795276 -46.93139648 274.37084961 C-42.98831245 265.67881996 -39.31784216 256.95409647 -36 248 C-36.99 247.67 -37.98 247.34 -39 247 Z M-48 263 C-47 265 -47 265 -47 265 Z M-25 280 C-25 281.65 -25 283.3 -25 285 C-24.67 285 -24.34 285 -24 285 C-24 283.35 -24 281.7 -24 280 C-24.33 280 -24.66 280 -25 280 Z M-26 288 C-27.47047336 291.91063224 -27.47047336 291.91063224 -28 296 C-27.01 295.67 -26.02 295.34 -25 295 C-25 292.69 -25 290.38 -25 288 C-25.33 288 -25.66 288 -26 288 Z M-56 290 C-55 292 -55 292 -55 292 Z M-57 292 C-56 294 -56 294 -56 294 Z M-30 304 C-30.66 307.3 -31.32 310.6 -32 314 C-30.35 313.67 -28.7 313.34 -27 313 C-27 310.03 -27 307.06 -27 304 C-27.99 304 -28.98 304 -30 304 Z M-17 306 C-17 308.64 -17 311.28 -17 314 C-16.67 314 -16.34 314 -16 314 C-16 311.36 -16 308.72 -16 306 C-16.33 306 -16.66 306 -17 306 Z M-18 318 C-18.34057018 322.10359896 -18.67110268 326.2079503 -19 330.3125 C-19.09539062 331.46041016 -19.19078125 332.60832031 -19.2890625 333.79101562 C-19.85131134 340.87936712 -20.12984909 347.88986069 -20 355 C-19.67 355 -19.34 355 -19 355 C-17.64201122 342.61918735 -16.6827401 330.4612638 -17 318 C-17.33 318 -17.66 318 -18 318 Z M-21 364 C-21.6993514 366.18541552 -21.6993514 366.18541552 -21.75 368.625 C-21.8325 370.06875 -21.915 371.5125 -22 373 C-17.05 373 -12.1 373 -7 373 C-7 369.7 -7 366.4 -7 363 C-7.66 363 -8.32 363 -9 363 C-9.33 364.32 -9.66 365.64 -10 367 C-10.99 367 -11.98 367 -13 367 C-13 365.35 -13 363.7 -13 362 C-17.40328425 361.95985993 -17.40328425 361.95985993 -21 364 Z M-22 378 C-22 378.33 -22 378.66 -22 379 C-16.72 379 -11.44 379 -6 379 C-6 378.67 -6 378.34 -6 378 C-11.28 378 -16.56 378 -22 378 Z M-23 385 C-23.21124832 386.65688902 -23.35893373 388.32193676 -23.48071289 389.98779297 C-23.56072037 391.05335419 -23.64072784 392.11891541 -23.72315979 393.21676636 C-23.80549362 394.38015533 -23.88782745 395.54354431 -23.97265625 396.7421875 C-24.06002548 397.93546661 -24.14739471 399.12874573 -24.2374115 400.35818481 C-24.42199543 402.89520295 -24.60426081 405.43239065 -24.78442383 407.96972656 C-25.0588729 411.82406141 -25.34233501 415.67765432 -25.62695312 419.53125 C-25.80523469 421.99735634 -25.98298537 424.46350112 -26.16015625 426.9296875 C-26.28669334 428.6444075 -26.28669334 428.6444075 -26.41578674 430.39376831 C-26.89791241 437.27594406 -27.10462926 444.10138995 -27 451 C-13.97977176 452.04158093 -13.97977176 452.04158093 -1 451 C0.30611083 446.23657233 -0.11359044 441.81531834 -0.48828125 436.95703125 C-0.55154099 436.07456223 -0.61480072 435.1920932 -0.67997742 434.28288269 C-0.81559179 432.41076564 -0.95449061 430.53888403 -1.09643555 428.66723633 C-1.30831052 425.86785321 -1.50958249 423.06787418 -1.70898438 420.26757812 C-2.35175371 411.41786255 -3.08812772 402.58364506 -4.04296875 393.76171875 C-4.1233992 393.00413773 -4.20382965 392.2465567 -4.28669739 391.46601868 C-4.68393737 387.60939351 -4.68393737 387.60939351 -6 384 C-8.64590014 383.97315321 -11.29153096 383.95323643 -13.9375 383.9375 C-15.06961914 383.92493164 -15.06961914 383.92493164 -16.22460938 383.91210938 C-19.91191764 383.534744 -19.91191764 383.534744 -23 385 Z M-28 458 C-28 460.97 -28 463.94 -28 467 C-28.33 467 -28.66 467 -29 467 C-29.04898438 468.17433594 -29.09796875 469.34867187 -29.1484375 470.55859375 C-29.2236429 472.18491045 -29.29918236 473.81121173 -29.375 475.4375 C-29.4059375 476.20126953 -29.436875 476.96503906 -29.46875 477.75195312 C-29.71884523 482.94142911 -30.23029926 488.05561776 -30.875 493.2109375 C-32.38764659 505.44160436 -33.2949947 517.73344263 -34.28710938 530.01489258 C-34.57023056 533.51950705 -34.85832196 537.02369258 -35.1478672 540.52778149 C-35.42655749 543.9076445 -35.70142413 547.2878147 -35.9765625 550.66796875 C-36.07965729 551.91797165 -36.18275208 553.16797455 -36.28897095 554.45585632 C-36.42944351 556.20476921 -36.42944351 556.20476921 -36.57275391 557.98901367 C-36.65554596 559.00807297 -36.73833801 560.02713226 -36.82363892 561.07707214 C-37.00397934 564.06595168 -37.09937418 567.00682454 -37 570 C-36.67 570.33 -36.34 570.66 -36 571 C-36.3079248 571.77239014 -36.61584961 572.54478027 -36.93310547 573.34057617 C-38.31074829 578.06585952 -38.68055903 582.65760269 -39.0703125 587.55078125 C-39.15626678 588.56416061 -39.24222107 589.57753998 -39.33078003 590.62162781 C-39.51065216 592.76039895 -39.6869382 594.89947433 -39.85986328 597.03881836 C-40.12330926 600.2916242 -40.39859373 603.54326122 -40.67578125 606.79492188 C-40.84966127 608.88014984 -41.02286051 610.9654347 -41.1953125 613.05078125 C-41.27653351 614.01357498 -41.35775452 614.97636871 -41.44143677 615.96833801 C-41.89702924 621.66685828 -42.07535086 627.28321049 -42 633 C-35.97731502 633.08007404 -30.1498669 632.83268875 -24.16796875 632.16015625 C-23.36893631 632.07374374 -22.56990387 631.98733124 -21.74665833 631.89830017 C-20.07507568 631.71648349 -18.40374432 631.53234237 -16.73266602 631.34594727 C-14.17720128 631.06135306 -11.62093992 630.78501183 -9.06445312 630.50976562 C-7.43223881 630.3312117 -5.80007538 630.15219181 -4.16796875 629.97265625 C-3.02729195 629.8491555 -3.02729195 629.8491555 -1.86357117 629.72315979 C1.48966649 629.34604724 4.75695365 628.95627608 8 628 C8 626.68 8 625.36 8 624 C8.33 624.99 8.66 625.98 9 627 C10.98 627 12.96 627 15 627 C14.57171376 617.03670949 13.99834602 607.11168914 13 597.1875 C12.8755249 595.94468262 12.8755249 595.94468262 12.74853516 594.67675781 C12.41049721 591.43451567 12.04857188 588.25466507 11.4375 585.05078125 C11.0769607 582.53666342 11.00204816 580.46222683 11.06616211 577.94873047 C11.09673354 569.86112718 10.22462101 561.81722124 9.50390625 553.76953125 C9.34903515 552.00700179 9.19449477 550.24444325 9.04026794 548.4818573 C8.71759147 544.80447593 8.39204442 541.12736444 8.06420898 537.45043945 C7.64521849 532.75030399 7.23173896 528.04970465 6.82019138 523.34891224 C6.5017791 519.71557161 6.18131567 516.08241433 5.86015129 512.44931602 C5.70703345 510.71629289 5.5543442 508.98323184 5.40210152 507.25013161 C5.18871436 504.82648905 4.9727768 502.40308705 4.75610352 499.97973633 C4.69424362 499.27255463 4.63238373 498.56537292 4.56864929 497.83676147 C4.18050763 493.53312321 3.61883674 489.2756814 3 485 C2.76102204 481.6244363 2.56716741 478.25223995 2.39453125 474.87304688 C2.49646736 467.96793457 2.49646736 467.96793457 0 462 C0 460.68 0 459.36 0 458 C-9.24 458 -18.48 458 -28 458 Z M-39 477 C-39.50666472 481.18672147 -40.00413918 485.37448633 -40.5 489.5625 C-40.64308594 490.74392578 -40.78617188 491.92535156 -40.93359375 493.14257812 C-41.59866722 498.79570264 -42.20065423 504.30643621 -42 510 C-41.01 509.505 -41.01 509.505 -40 509 C-39.53060401 507.0520549 -39.53060401 507.0520549 -39.3671875 504.6953125 C-39.2832373 503.80610107 -39.19928711 502.91688965 -39.11279297 502.00073242 C-39.03432129 501.05174072 -38.95584961 500.10274902 -38.875 499.125 C-38.79008301 498.17149658 -38.70516602 497.21799316 -38.61767578 496.2355957 C-38.07388717 489.81681124 -37.72839559 483.4430602 -38 477 C-38.33 477 -38.66 477 -39 477 Z M13 502 C13 504.31 13 506.62 13 509 C13.33 509 13.66 509 14 509 C14 506.69 14 504.38 14 502 C13.67 502 13.34 502 13 502 Z M14 509 C13.907696 515.60502062 14.14416532 522.09483869 14.734375 528.67236328 C14.81240356 529.58090561 14.89043213 530.48944794 14.9708252 531.42552185 C15.22649779 534.39081929 15.48819296 537.35555094 15.75 540.3203125 C15.92973623 542.39107066 16.1090923 544.46186185 16.28808594 546.53268433 C16.75776886 551.95476214 17.2325809 557.37637874 17.70849609 562.7979126 C18.1942052 568.34156604 18.6750157 573.88564414 19.15625 579.4296875 C20.09939789 590.28687729 21.04796994 601.14358571 22 612 C22.33 612 22.66 612 23 612 C23.08458905 601.56735057 22.90565788 591.17051765 22.375 580.75 C22.3184726 579.61541855 22.3184726 579.61541855 22.26080322 578.45791626 C21.04824007 555.19915866 17.93339676 532.09188476 15 509 C14.67 509 14.34 509 14 509 Z M-42 511 C-44.36137384 517.87878468 -44.89924693 524.91930876 -45.625 532.125 C-45.7590625 533.38699219 -45.893125 534.64898438 -46.03125 535.94921875 C-46.74602041 542.37896232 -46.74602041 542.37896232 -46.97412109 548.83544922 C-47 551 -47 551 -48 552 C-48.29991737 554.02072388 -48.53969938 556.05043315 -48.75390625 558.08203125 C-48.88603516 559.32404297 -49.01816406 560.56605469 -49.15429688 561.84570312 C-49.28900391 563.15474609 -49.42371094 564.46378906 -49.5625 565.8125 C-49.70107422 567.10994141 -49.83964844 568.40738281 -49.98242188 569.74414062 C-50.74206751 576.85740933 -50.74206751 576.85740933 -51 584 C-50.34 584 -49.68 584 -49 584 C-49.99 584.99 -49.99 584.99 -51 586 C-51.4673667 588.8907496 -51.83699342 591.71660569 -52.125 594.625 C-52.21136719 595.42679688 -52.29773438 596.22859375 -52.38671875 597.0546875 C-52.59896327 599.03563635 -52.80049931 601.01772718 -53 603 C-53.33 603 -53.66 603 -54 603 C-53.67 606.96 -53.34 610.92 -53 615 C-48.71610591 612.14407061 -48.18574403 608.87569889 -47 604 C-46.41670668 600.33218277 -46.10544455 596.66738482 -45.83203125 592.96484375 C-45.74749191 591.92791885 -45.66295258 590.89099396 -45.57585144 589.82264709 C-45.40009235 587.63715448 -45.22979722 585.45121625 -45.06469727 583.26489258 C-44.81498632 579.97030352 -44.54665567 576.67764243 -44.27539062 573.38476562 C-43.55443957 564.37862353 -42.85787883 555.41838124 -42.98046875 546.37890625 C-43.08029425 538.8300333 -42.39200325 531.48961288 -41.5 524 C-41.35691406 522.73671875 -41.21382812 521.4734375 -41.06640625 520.171875 C-40.71887237 517.11357687 -40.36337214 514.05644939 -40 511 C-40.66 511 -41.32 511 -42 511 Z M23 587 C23.11861184 591.60831791 23.24288361 596.21643613 23.37231445 600.82446289 C23.41552339 602.39082736 23.45720791 603.95723467 23.49731445 605.52368164 C23.55535871 607.7802418 23.61895302 610.03658908 23.68359375 612.29296875 C23.70030624 612.98899704 23.71701874 613.68502533 23.73423767 614.40214539 C23.84408419 618.03872797 24.15721991 621.45792427 25 625 C25.99 625 26.98 625 28 625 C27.41511554 612.23338393 25.7527688 599.65192382 24 587 C23.67 587 23.34 587 23 587 Z M-55 609 C-55.495 616.425 -55.495 616.425 -56 624 C-53.67133771 622.11153817 -53.67133771 622.11153817 -53.8046875 618.9609375 C-53.82789063 617.77757812 -53.85109375 616.59421875 -53.875 615.375 C-53.89304687 614.18648437 -53.91109375 612.99796875 -53.9296875 611.7734375 C-53.95289063 610.85820313 -53.97609375 609.94296875 -54 609 C-54.33 609 -54.66 609 -55 609 Z M-49 611 C-49.82101314 613.1843191 -50.63142482 615.37262436 -51.4375 617.5625 C-51.88996094 618.78066406 -52.34242188 619.99882813 -52.80859375 621.25390625 C-53.95685395 624.86433751 -54.52278698 628.25179289 -55 632 C-55.33 632.66 -55.66 633.32 -56 634 C-54.00045254 634.04254356 -51.99958364 634.04080783 -50 634 C-48.34920558 632.34920558 -48.77450553 630.36263821 -48.68359375 628.08984375 C-48.64169922 627.10048828 -48.59980469 626.11113281 -48.55664062 625.09179688 C-48.49766602 623.53041992 -48.49766602 623.53041992 -48.4375 621.9375 C-48.37272461 620.37032227 -48.37272461 620.37032227 -48.30664062 618.77148438 C-48.20018775 616.18113116 -48.0981724 613.59067814 -48 611 C-48.33 611 -48.66 611 -49 611 Z M-56 626 C-56.33 627.32 -56.66 628.64 -57 630 C-56.34 628.68 -55.68 627.36 -55 626 C-55.33 626 -55.66 626 -56 626 Z M-71 629 C-71 631.31 -71 633.62 -71 636 C-69.02 635.67 -67.04 635.34 -65 635 C-64.67 633.68 -64.34 632.36 -64 631 C-66.31 630.34 -68.62 629.68 -71 629 Z M27 631 C27.66 632.32 28.32 633.64 29 635 C29 633.68 29 632.36 29 631 C28.34 631 27.68 631 27 631 Z M25 632 C25 636.95 25 641.9 25 647 C27.475 647.99 27.475 647.99 30 649 C30.48736475 642.29873464 29.07708804 637.93438408 26 632 C25.67 632 25.34 632 25 632 Z M4.17553711 633.44311523 C2.81899269 633.58842934 2.81899269 633.58842934 1.43504333 633.73667908 C0.47550247 633.84291092 -0.48403839 633.94914276 -1.47265625 634.05859375 C-2.97366127 634.22150658 -2.97366127 634.22150658 -4.50498962 634.38771057 C-6.61392884 634.61735549 -8.72269612 634.84858433 -10.83129883 635.08129883 C-14.05441134 635.43660832 -17.27811978 635.78606378 -20.50195312 636.13476562 C-22.55472553 636.35902716 -24.60746121 636.58362515 -26.66015625 636.80859375 C-27.62172134 636.91280136 -28.58328644 637.01700897 -29.57398987 637.12437439 C-30.92580605 637.27441673 -30.92580605 637.27441673 -32.30493164 637.42749023 C-33.09291641 637.51409409 -33.88090118 637.60069794 -34.69276428 637.68992615 C-37.15566929 638.0209207 -39.56872589 638.48850589 -42 639 C-42.185625 640.299375 -42.37125 641.59875 -42.5625 642.9375 C-42.66691406 643.66839844 -42.77132812 644.39929688 -42.87890625 645.15234375 C-42.91886719 645.76207031 -42.95882812 646.37179687 -43 647 C-42.01592689 648.20495909 -42.01592689 648.20495909 -40.14233398 648.11352539 C-39.35157471 648.10828857 -38.56081543 648.10305176 -37.74609375 648.09765625 C-36.89208984 648.09443359 -36.03808594 648.09121094 -35.15820312 648.08789062 C-33.81145508 648.07532227 -33.81145508 648.07532227 -32.4375 648.0625 C-31.53580078 648.05798828 -30.63410156 648.05347656 -29.70507812 648.04882812 C-27.46998686 648.03700225 -25.23502563 648.0205222 -23 648 C-23.99 647.67 -24.98 647.34 -26 647 C-26 645.68 -26 644.36 -26 643 C-24.948125 643.13277344 -23.89625 643.26554688 -22.8125 643.40234375 C-16.87741275 644.14292352 -10.93956344 644.85877621 -5 645.5625 C-3.86304688 645.70107422 -2.72609375 645.83964844 -1.5546875 645.98242188 C4.34308695 646.6768814 10.06163252 647.16738046 16 647 C15.67 642.38 15.34 637.76 15 633 C11.23630733 633 7.86159673 633.04212357 4.17553711 633.44311523 Z M-57 640 C-58.41577477 641.18424326 -58.41577477 641.18424326 -58.0625 644.5625 C-58.041875 645.696875 -58.02125 646.83125 -58 648 C-56.68 648 -55.36 648 -54 648 C-54.33 645.36 -54.66 642.72 -55 640 C-55.66 640 -56.32 640 -57 640 Z M-54 640 C-53.67 641.65 -53.34 643.3 -53 645 C-52.34 644.67 -51.68 644.34 -51 644 C-51.66 642.68 -52.32 641.36 -53 640 C-53.33 640 -53.66 640 -54 640 Z M-43 651 C-43 651.33 -43 651.66 -43 652 C-23.86 652 -4.72 652 15 652 C15 651.67 15 651.34 15 651 C-4.14 651 -23.28 651 -43 651 Z M26 655 C26.33 655.66 26.66 656.32 27 657 C27.33 656.34 27.66 655.68 28 655 C27.34 655 26.68 655 26 655 Z M27 657 C28 659 28 659 28 659 Z M28 661 C29 663 29 663 29 663 Z M31 661 C28.11169342 665.33245986 28.61179635 668.78254576 29.4765625 673.72216797 C30.11212532 676.80394368 30.79565317 679.87073584 31.5 682.9375 C31.85771484 684.53561523 31.85771484 684.53561523 32.22265625 686.16601562 C32.80850659 688.77890813 33.40111458 691.39007007 34 694 C34.99 693.505 34.99 693.505 36 693 C35.86722656 692.06800781 35.73445312 691.13601563 35.59765625 690.17578125 C34.55945349 682.68101826 33.72437171 675.27188774 33.34375 667.70703125 C33.00353249 665.02781834 32.36528279 663.30666729 31 661 Z M-53 662 C-52 664 -52 664 -52 664 Z M26 662 C26 663.98 26 665.96 26 668 C26.33 668 26.66 668 27 668 C27 666.02 27 664.04 27 662 C26.67 662 26.34 662 26 662 Z M27 669 C25.91025567 674.05254215 26.06423364 678.54857851 26.48828125 683.64453125 C26.55154099 684.45492355 26.61480072 685.26531586 26.67997742 686.1002655 C26.81509608 687.80241167 26.95398112 689.50426262 27.09643555 691.20581055 C27.31317276 693.82061644 27.51172363 696.43639532 27.70898438 699.05273438 C27.84265777 700.70842188 27.97738586 702.36402464 28.11328125 704.01953125 C28.20093498 705.19755058 28.20093498 705.19755058 28.2903595 706.39936829 C28.45444951 708.27400412 28.7176071 710.13950564 29 712 C29.66 712.33 30.32 712.66 31 713 C31 712.01 31 711.02 31 710 C31.66 710 32.32 710 33 710 C35.45586124 700.79052036 33.61155054 691.60688337 31.625 682.5 C31.40328125 681.4171875 31.1815625 680.334375 30.953125 679.21875 C30.02646386 673.57931237 30.02646386 673.57931237 27 669 Z M35 695 C36 699 36 699 36 699 Z M36 701 C37 703 37 703 37 703 Z M34 702 C35 705 35 705 35 705 Z M34 708 C35 710 35 710 35 710 Z " fill="#000000" transform="translate(382,0)"/>
<path d="M0 0 C4.35628244 0.51250382 7.2324635 3.32342005 10.5 6 C11.74126092 6.99724815 12.98346687 7.99332105 14.2265625 8.98828125 C15.16483887 9.74165771 15.16483887 9.74165771 16.12207031 10.51025391 C18.9981781 12.79184644 21.93095126 14.99466661 24.875 17.1875 C25.86242187 17.92355469 26.84984375 18.65960938 27.8671875 19.41796875 C28.57101562 19.94003906 29.27484375 20.46210937 30 21 C25.85473668 25.90009124 21.58854597 30.6419898 17.1875 35.3125 C15.95787415 36.62717484 14.72870828 37.94228005 13.5 39.2578125 C11.83451615 41.03980797 10.16846344 42.82114434 8.49609375 44.59667969 C7.2197596 45.95392106 5.95322264 47.32035728 4.6875 48.6875 C3.99011719 49.43386719 3.29273438 50.18023437 2.57421875 50.94921875 C0.869299 52.85829299 0.869299 52.85829299 0.58203125 55.08203125 C-0.29563526 57.97420745 -2.45080639 58.47792973 -5 60 C-6.43551568 61.27016049 -7.82839396 62.58980024 -9.1796875 63.94921875 C-9.94410156 64.71556641 -10.70851563 65.48191406 -11.49609375 66.27148438 C-12.28113281 67.06876953 -13.06617188 67.86605469 -13.875 68.6875 C-14.65230469 69.46544922 -15.42960937 70.24339844 -16.23046875 71.04492188 C-20.4211504 75.26729776 -24.45160525 79.57546159 -28.33398438 84.08227539 C-31.08519512 87.24915118 -33.95009942 90.30885796 -36.8125 93.375 C-37.38419922 93.98988281 -37.95589844 94.60476562 -38.54492188 95.23828125 C-40.67090869 97.52165604 -42.79371115 99.79371115 -45 102 C-46.32 101.34 -47.64 100.68 -49 100 C-49 99.34 -49 98.68 -49 98 C-49.99 97.67 -50.98 97.34 -52 97 C-52 96.34 -52 95.68 -52 95 C-53.9600281 93.36323743 -53.9600281 93.36323743 -56 92 C-54.26076169 86.99340647 -51.54073726 82.63813981 -48.8125 78.125 C-48.29510254 77.26455078 -47.77770508 76.40410156 -47.24462891 75.51757812 C-42.31815424 67.39449154 -37.14177815 59.43957226 -31.90161133 51.51611328 C-31.29212646 50.5929834 -30.6826416 49.66985352 -30.0546875 48.71875 C-29.51312012 47.90341797 -28.97155273 47.08808594 -28.41357422 46.24804688 C-27.13278145 44.21116608 -26.03066294 42.17204285 -25 40 C-25.66 39.67 -26.32 39.34 -27 39 C-26.29230469 38.69449219 -25.58460938 38.38898438 -24.85546875 38.07421875 C-20.72340306 35.07267719 -18.80431921 31.2054971 -16.3125 26.8125 C-15.26306359 25.01093469 -14.21226036 23.21016494 -13.16015625 21.41015625 C-12.63566895 20.50668457 -12.11118164 19.60321289 -11.57080078 18.67236328 C-9.20657788 14.65017119 -6.73693445 10.6971196 -4.25 6.75 C-3.81985596 6.06526611 -3.38971191 5.38053223 -2.9465332 4.67504883 C-1.96604632 3.11563481 -0.98331124 1.55763462 0 0 Z " fill="#000000" transform="translate(465,27)"/>
<path d="M0 0 C1.14160156 1.58544922 1.14160156 1.58544922 2.390625 3.8046875 C3.08031372 5.01511719 3.08031372 5.01511719 3.78393555 6.25 C4.26773682 7.11625 4.75153809 7.9825 5.25 8.875 C6.24012262 10.62282817 7.23100175 12.37022801 8.22265625 14.1171875 C8.69977051 14.96120117 9.17688477 15.80521484 9.66845703 16.67480469 C11.70900528 20.2380943 13.87599274 23.71987587 16.07421875 27.1875 C17 29 17 29 17 32 C6.96943182 37.29033468 -3.06328193 42.57799294 -13.1875 47.6875 C-14.18330078 48.19506836 -14.18330078 48.19506836 -15.19921875 48.71289062 C-19.76376685 51 -19.76376685 51 -22 51 C-21.505 53.97 -21.505 53.97 -21 57 C-21.66 55.68 -22.32 54.36 -23 53 C-37.85659723 59.57819076 -52.36829779 66.63111743 -66.72729492 74.22290039 C-67.33128616 74.54060394 -67.9352774 74.8583075 -68.55757141 75.18563843 C-70.20423948 76.05258438 -71.84806532 76.92492269 -73.49169922 77.79760742 C-76 79 -76 79 -78 79 C-78.33 80.32 -78.66 81.64 -79 83 C-79.83848804 81.54462432 -80.67063934 80.08559627 -81.5 78.625 C-81.9640625 77.81289062 -82.428125 77.00078125 -82.90625 76.1640625 C-84 74 -84 74 -84 72 C-84.66 72 -85.32 72 -86 72 C-86.4609375 69.40625 -86.4609375 69.40625 -86 66 C-83.87677217 63.42349881 -81.27415149 61.512871 -78.625 59.5 C-77.48599243 58.60075806 -77.48599243 58.60075806 -76.32397461 57.68334961 C-74.71482172 56.41716608 -73.09897381 55.15945173 -71.47705078 53.90966797 C-69.04155477 52.03203641 -66.62617087 50.13118969 -64.21484375 48.22265625 C-42.38068144 31 -42.38068144 31 -39 31 C-39.495 29.02 -39.495 29.02 -40 27 C-39.278125 26.91621094 -38.55625 26.83242187 -37.8125 26.74609375 C-34.37615102 25.83450673 -32.67994216 24.387023 -30 22.0625 C-29.04351562 21.25167969 -28.08703125 20.44085938 -27.1015625 19.60546875 C-26.59786133 19.1779834 -26.09416016 18.75049805 -25.57519531 18.31005859 C-22.90208442 16.08688546 -20.13977958 13.98228917 -17.375 11.875 C-12.77316194 8.36569931 -8.21481733 4.80933343 -3.70703125 1.1796875 C-2 0 -2 0 0 0 Z " fill="#000000" transform="translate(515,67)"/>
<path d="M0 0 C3.19199167 2.41556126 5.74716687 4.68003538 8 8 C7.67 8.66 7.34 9.32 7 10 C5.82739389 8.71372289 4.6620717 7.42080217 3.5 6.125 C2.8503125 5.40570313 2.200625 4.68640625 1.53125 3.9453125 C0 2 0 2 0 0 Z " fill="#000000" transform="translate(311,95)"/>
<path d="M0 0 C0.33 0.66 0.66 1.32 1 2 C-0.43359375 4.8203125 -0.43359375 4.8203125 -2.4375 8.125 C-3.09621094 9.22070312 -3.75492187 10.31640625 -4.43359375 11.4453125 C-4.95050781 12.28835938 -5.46742188 13.13140625 -6 14 C-6.33 13.34 -6.66 12.68 -7 12 C-5.56640625 9.1796875 -5.56640625 9.1796875 -3.5625 5.875 C-2.57443359 4.23144531 -2.57443359 4.23144531 -1.56640625 2.5546875 C-1.04949219 1.71164062 -0.53257812 0.86859375 0 0 Z " fill="#000000" transform="translate(331,266)"/>
<path d="M0 0 C0.33 0.66 0.66 1.32 1 2 C0.00390625 4.1640625 0.00390625 4.1640625 -1.4375 6.625 C-1.91058594 7.44226563 -2.38367188 8.25953125 -2.87109375 9.1015625 C-3.24363281 9.72804688 -3.61617188 10.35453125 -4 11 C-4.33 10.34 -4.66 9.68 -5 9 C-4.00390625 6.8359375 -4.00390625 6.8359375 -2.5625 4.375 C-2.08941406 3.55773437 -1.61632812 2.74046875 -1.12890625 1.8984375 C-0.75636719 1.27195312 -0.38382812 0.64546875 0 0 Z " fill="#000000" transform="translate(323,280)"/>
<path d="M0 0 C1.46050559 3.82469901 0.45152603 6.09296456 -1 9.8125 C-3.20769148 16.07777617 -3.08735969 19.91914756 -0.875 26.1875 C0.05085398 29.16345922 -0.12703054 30.12903705 -1 33 C-1.64633275 31.22934889 -2.2920483 29.45847247 -2.9375 27.6875 C-3.29714844 26.70136719 -3.65679687 25.71523438 -4.02734375 24.69921875 C-5.38994888 20.91785272 -6.31051999 18.03675984 -6 14 C-5.34 13.34 -4.68 12.68 -4 12 C-3.23323689 9.97955123 -2.53204614 7.93374458 -1.875 5.875 C-1.52179688 4.77929688 -1.16859375 3.68359375 -0.8046875 2.5546875 C-0.53914063 1.71164062 -0.27359375 0.86859375 0 0 Z " fill="#000000" transform="translate(372,488)"/>
<path d="M0 0 C0.33 0 0.66 0 1 0 C1.10251672 5.12583611 1.03590199 9.94997778 0 15 C-0.33 15 -0.66 15 -1 15 C-0.67 10.05 -0.34 5.1 0 0 Z " fill="#000000" transform="translate(326,490)"/>
<path d="M0 0 C3.05227053 3.05227053 3.84346654 6.83341231 5.1875 10.875 C5.47302734 11.69097656 5.75855469 12.50695312 6.05273438 13.34765625 C6.31763672 14.13785156 6.58253906 14.92804687 6.85546875 15.7421875 C7.09934326 16.4626123 7.34321777 17.18303711 7.59448242 17.92529297 C8.05438478 20.27824316 7.74371194 21.74376667 7 24 C5.82599412 20.56496228 4.66206791 17.12659286 3.5 13.6875 C3.16613281 12.71103516 2.83226562 11.73457031 2.48828125 10.72851562 C2.17246094 9.79072266 1.85664063 8.85292969 1.53125 7.88671875 C1.23798828 7.02264404 0.94472656 6.15856934 0.64257812 5.26831055 C0 3 0 3 0 0 Z " fill="#000000" transform="translate(374,527)"/>
<path d="M0 0 C1.49828872 3.88235819 0.43110582 6.43449288 -0.9375 10.25 C-1.31777344 11.32765625 -1.69804687 12.4053125 -2.08984375 13.515625 C-2.39019531 14.33546875 -2.69054687 15.1553125 -3 16 C-4.49828872 12.11764181 -3.43110582 9.56550712 -2.0625 5.75 C-1.68222656 4.67234375 -1.30195313 3.5946875 -0.91015625 2.484375 C-0.45962891 1.25460937 -0.45962891 1.25460937 0 0 Z " fill="#000000" transform="translate(359,528)"/>
<path d="M0 0 C0.13148438 0.5465625 0.26296875 1.093125 0.3984375 1.65625 C0.82851194 3.3318647 1.296448 4.99794375 1.7890625 6.65625 C2.06492187 7.5946875 2.34078125 8.533125 2.625 9.5 C2.90601563 10.4384375 3.18703125 11.376875 3.4765625 12.34375 C4.00433212 15.02198388 3.89870043 16.45967344 3 19 C2.32451422 16.94037148 1.65995688 14.87715678 1 12.8125 C0.62875 11.66394531 0.2575 10.51539063 -0.125 9.33203125 C-0.90916596 6.34589928 -1.26834816 4.05805095 -1 1 C-0.67 0.67 -0.34 0.34 0 0 Z " fill="#000000" transform="translate(368,540)"/>
<path d="M0 0 C0.33 0 0.66 0 1 0 C1.09038099 5.15171623 0.84681133 9.91913204 0 15 C-0.33 15 -0.66 15 -1 15 C-1.09038099 9.84828377 -0.84681133 5.08086796 0 0 Z " fill="#000000" transform="translate(319,551)"/>
<path d="M0 0 C2.34917898 2.15341406 3.82443004 4.21667937 5.25 7.0625 C5.60578125 7.75472656 5.9615625 8.44695313 6.328125 9.16015625 C6.54984375 9.76730469 6.7715625 10.37445312 7 11 C6.67 11.66 6.34 12.32 6 13 C4.99491199 11.21118264 3.99607264 9.41885304 3 7.625 C2.1646875 6.12839844 2.1646875 6.12839844 1.3125 4.6015625 C0 2 0 2 0 0 Z " fill="#000000" transform="translate(340,663)"/>
<path d="M0 0 C0.33 0 0.66 0 1 0 C1.09507063 6.43311296 1.15316726 12.65758005 0 19 C-0.33 19 -0.66 19 -1 19 C-0.67 12.73 -0.34 6.46 0 0 Z " fill="#000000" transform="translate(322,671)"/>
<path d="M0 0 C1 3 1 3 -0.21484375 5.91796875 C-0.78332031 6.99691406 -1.35179687 8.07585938 -1.9375 9.1875 C-2.50339844 10.27417969 -3.06929688 11.36085938 -3.65234375 12.48046875 C-4.09707031 13.31191406 -4.54179687 14.14335938 -5 15 C-6 12 -6 12 -4.78515625 9.08203125 C-4.21667969 8.00308594 -3.64820313 6.92414062 -3.0625 5.8125 C-2.49660156 4.72582031 -1.93070312 3.63914062 -1.34765625 2.51953125 C-0.90292969 1.68808594 -0.45820313 0.85664062 0 0 Z " fill="#000000" transform="translate(398,689)"/>
<path d="M0 0 C0.33 0 0.66 0 1 0 C1.19644384 1.89492746 1.38177288 3.79100903 1.5625 5.6875 C1.66691406 6.74324219 1.77132813 7.79898438 1.87890625 8.88671875 C1.99277552 11.81426086 1.70848415 14.17131144 1 17 C0.01 17 -0.98 17 -2 17 C-1.34 11.39 -0.68 5.78 0 0 Z " fill="#000000" transform="translate(320,690)"/>
<path d="M0 0 C0.33 0.66 0.66 1.32 1 2 C0.67 2.556875 0.34 3.11375 0 3.6875 C-1.42897299 6.99200004 -0.66607856 9.5363915 0 13 C-2.0625 11.25 -2.0625 11.25 -4 9 C-3.88813722 5.53225382 -1.83142118 2.86657228 0 0 Z " fill="#000000" transform="translate(370,707)"/>
</svg>
